<?xml version="1.0" encoding="utf-8"?>
<!-- Generator: Adobe Illustrator 15.1.0, SVG Export Plug-In . SVG Version: 6.00 Build 0)  -->
<!DOCTYPE svg PUBLIC "-//W3C//DTD SVG 1.0//EN" "http://www.w3.org/TR/2001/REC-SVG-20010904/DTD/svg10.dtd">
<svg version="1.0" id="Layer_1" xmlns="http://www.w3.org/2000/svg" xmlns:xlink="http://www.w3.org/1999/xlink" x="0px" y="0px"
	 width="64px" height="64px" viewBox="0 0 64 64" enable-background="new 0 0 64 64" xml:space="preserve">
<g>
	<g>
		<linearGradient id="SVGID_1_" gradientUnits="userSpaceOnUse" x1="31.9995" y1="8.2202" x2="31.9995" y2="55.7808">
			<stop  offset="0" style="stop-color:#F2F2F2"/>
			<stop  offset="0.8352" style="stop-color:#DEDEDE"/>
			<stop  offset="1" style="stop-color:#999999"/>
		</linearGradient>
		<path fill="url(#SVGID_1_)" d="M38,55.78c-0.536,0-1.033-0.271-1.399-0.759L33,50.219c-0.271-0.36-0.627-0.559-1-0.559
			s-0.73,0.198-1,0.559l-3.6,4.803c-0.367,0.488-0.864,0.759-1.4,0.759s-1.033-0.271-1.4-0.759L21,50.219
			c-0.27-0.36-0.626-0.559-1-0.559c-0.373,0-0.729,0.198-1,0.559l-3.6,4.803c-0.328,0.435-0.645,0.657-0.946,0.657
			c-0.138,0-0.392-0.052-0.555-0.384c-0.099-0.199-0.148-0.478-0.148-0.824V10.47c0-1.241,1.008-2.25,2.25-2.25h32
			c1.241,0,2.25,1.008,2.25,2.25v44.001c0,1.091-0.491,1.208-0.703,1.208c-0.301,0-0.618-0.223-0.946-0.657L45,50.219
			c-0.27-0.36-0.627-0.559-1-0.559s-0.729,0.198-1,0.559l-3.6,4.803C39.033,55.51,38.536,55.78,38,55.78L38,55.78z"/>
		<path fill="#CCCCCC" d="M48,8.47c1.1,0,2,0.9,2,2v44c0,0.63-0.178,0.958-0.453,0.958c-0.205,0-0.465-0.182-0.747-0.558l-3.6-4.801
			c-0.33-0.439-0.766-0.66-1.2-0.66s-0.87,0.221-1.2,0.66l-3.6,4.801c-0.33,0.44-0.765,0.66-1.2,0.66c-0.435,0-0.87-0.22-1.2-0.66
			l-3.6-4.801c-0.33-0.439-0.766-0.66-1.2-0.66c-0.435,0-0.87,0.221-1.2,0.66l-3.6,4.801c-0.33,0.44-0.765,0.66-1.2,0.66
			s-0.87-0.22-1.2-0.66l-3.6-4.801c-0.33-0.439-0.765-0.66-1.2-0.66s-0.87,0.221-1.2,0.66l-3.6,4.801
			c-0.282,0.376-0.542,0.558-0.747,0.558C14.177,55.428,14,55.1,14,54.47v-44c0-1.1,0.9-2,2-2H48 M48,7.97H16
			c-1.378,0-2.5,1.122-2.5,2.5v44c0,1.354,0.729,1.458,0.953,1.458c0.384,0,0.77-0.255,1.147-0.758l3.6-4.801
			c0.223-0.296,0.507-0.46,0.8-0.46s0.578,0.164,0.8,0.46l3.6,4.801c0.41,0.547,0.993,0.86,1.6,0.86s1.19-0.313,1.6-0.86l3.6-4.801
			c0.223-0.296,0.507-0.46,0.8-0.46c0.294,0,0.578,0.164,0.8,0.46l3.6,4.801c0.41,0.547,0.994,0.86,1.601,0.86
			c0.607,0,1.19-0.313,1.601-0.86l3.6-4.801c0.222-0.296,0.506-0.46,0.8-0.46s0.578,0.164,0.8,0.46l3.6,4.801
			c0.378,0.503,0.764,0.758,1.147,0.758c0.224,0,0.953-0.104,0.953-1.458v-44C50.5,9.091,49.379,7.97,48,7.97L48,7.97z"/>
	</g>
	<g>
		<path fill="#999999" d="M26.572,16.802c0,0.016-0.002,0.027-0.008,0.039c-0.005,0.011-0.018,0.02-0.035,0.027
			c-0.019,0.007-0.044,0.012-0.076,0.016c-0.033,0.004-0.076,0.006-0.131,0.006c-0.047,0-0.086-0.002-0.116-0.006
			c-0.029-0.004-0.054-0.01-0.072-0.018c-0.018-0.008-0.032-0.02-0.042-0.033c-0.01-0.016-0.019-0.033-0.025-0.055l-0.324-0.831
			c-0.038-0.095-0.077-0.181-0.119-0.26c-0.04-0.079-0.089-0.147-0.146-0.204c-0.056-0.058-0.122-0.102-0.198-0.134
			s-0.168-0.048-0.275-0.048H24.69v1.5c0,0.016-0.004,0.027-0.012,0.039c-0.009,0.011-0.021,0.02-0.038,0.025
			c-0.018,0.007-0.041,0.012-0.071,0.017c-0.029,0.005-0.067,0.007-0.112,0.007c-0.046,0-0.083-0.002-0.113-0.007
			s-0.054-0.01-0.072-0.017c-0.019-0.006-0.031-0.015-0.038-0.025c-0.008-0.012-0.011-0.023-0.011-0.039V13.54
			c0-0.07,0.019-0.121,0.056-0.148c0.037-0.028,0.076-0.043,0.118-0.043h0.749c0.089,0,0.163,0.003,0.222,0.008
			c0.06,0.004,0.112,0.01,0.16,0.015c0.136,0.023,0.256,0.061,0.36,0.111c0.104,0.052,0.192,0.116,0.263,0.193
			c0.071,0.078,0.124,0.167,0.159,0.269c0.036,0.101,0.054,0.212,0.054,0.334c0,0.117-0.017,0.224-0.048,0.316
			c-0.032,0.094-0.078,0.177-0.138,0.248c-0.06,0.072-0.132,0.135-0.215,0.187c-0.084,0.053-0.177,0.097-0.28,0.134
			c0.058,0.025,0.11,0.058,0.157,0.096c0.048,0.04,0.092,0.086,0.132,0.141c0.042,0.055,0.08,0.117,0.116,0.188
			s0.072,0.151,0.109,0.239l0.315,0.776c0.025,0.065,0.042,0.111,0.049,0.138C26.569,16.768,26.572,16.788,26.572,16.802z
			 M25.867,14.327c0-0.139-0.03-0.255-0.093-0.35c-0.062-0.096-0.165-0.164-0.311-0.206c-0.045-0.013-0.097-0.022-0.153-0.027
			c-0.058-0.005-0.132-0.009-0.225-0.009H24.69v1.188h0.458c0.123,0,0.229-0.014,0.32-0.045c0.09-0.029,0.164-0.071,0.225-0.125
			c0.06-0.053,0.104-0.117,0.132-0.189S25.867,14.412,25.867,14.327z"/>
		<path fill="#999999" d="M29.192,15.474c0,0.07-0.018,0.121-0.053,0.15c-0.036,0.031-0.076,0.045-0.122,0.045h-1.614
			c0,0.137,0.014,0.26,0.041,0.368s0.073,0.202,0.137,0.28c0.064,0.078,0.147,0.139,0.249,0.18c0.103,0.042,0.228,0.063,0.375,0.063
			c0.117,0,0.221-0.01,0.313-0.027c0.091-0.02,0.17-0.041,0.236-0.064s0.121-0.045,0.164-0.064s0.075-0.028,0.098-0.028
			c0.013,0,0.024,0.003,0.034,0.009c0.01,0.008,0.018,0.017,0.023,0.029c0.005,0.013,0.009,0.03,0.012,0.053
			c0.003,0.023,0.004,0.051,0.004,0.084c0,0.023-0.001,0.043-0.002,0.061c-0.002,0.018-0.005,0.033-0.007,0.047
			c-0.003,0.014-0.008,0.025-0.015,0.036c-0.006,0.011-0.014,0.021-0.023,0.031c-0.011,0.011-0.04,0.026-0.089,0.05
			c-0.049,0.022-0.112,0.045-0.19,0.066s-0.169,0.041-0.271,0.059c-0.103,0.017-0.212,0.025-0.328,0.025
			c-0.201,0-0.378-0.027-0.529-0.084c-0.152-0.057-0.279-0.141-0.383-0.251s-0.182-0.249-0.234-0.417
			c-0.053-0.166-0.079-0.361-0.079-0.582c0-0.211,0.027-0.4,0.082-0.568s0.133-0.311,0.235-0.428s0.227-0.207,0.372-0.27
			c0.145-0.063,0.308-0.094,0.487-0.094c0.192,0,0.356,0.031,0.491,0.093c0.136,0.062,0.247,0.146,0.334,0.249
			c0.087,0.104,0.151,0.227,0.191,0.367c0.042,0.142,0.062,0.291,0.062,0.451V15.474z M28.74,15.34
			c0.006-0.235-0.047-0.421-0.157-0.556s-0.274-0.201-0.492-0.201c-0.111,0-0.209,0.021-0.293,0.063s-0.154,0.098-0.211,0.166
			s-0.101,0.149-0.132,0.24c-0.031,0.093-0.048,0.188-0.052,0.288H28.74z"/>
		<path fill="#999999" d="M31.639,16.433c0,0.03-0.001,0.057-0.003,0.08c-0.002,0.022-0.005,0.041-0.01,0.057
			s-0.01,0.029-0.017,0.041c-0.006,0.012-0.021,0.029-0.043,0.053c-0.023,0.021-0.062,0.051-0.116,0.084s-0.115,0.063-0.184,0.09
			c-0.068,0.025-0.143,0.047-0.222,0.063c-0.08,0.017-0.163,0.024-0.248,0.024c-0.176,0-0.332-0.029-0.469-0.087
			c-0.136-0.058-0.25-0.144-0.342-0.255s-0.161-0.248-0.209-0.41c-0.049-0.163-0.072-0.352-0.072-0.563
			c0-0.241,0.029-0.448,0.088-0.622s0.14-0.315,0.242-0.426c0.103-0.111,0.224-0.193,0.362-0.246
			c0.139-0.055,0.289-0.081,0.451-0.081c0.078,0,0.154,0.007,0.228,0.021s0.141,0.034,0.203,0.058
			c0.062,0.023,0.116,0.051,0.164,0.082c0.048,0.03,0.083,0.057,0.105,0.078c0.021,0.021,0.036,0.039,0.044,0.053
			c0.009,0.012,0.016,0.027,0.021,0.045c0.005,0.017,0.009,0.036,0.011,0.059c0.002,0.021,0.002,0.049,0.002,0.081
			c0,0.071-0.008,0.12-0.024,0.148c-0.016,0.028-0.036,0.042-0.06,0.042c-0.027,0-0.059-0.015-0.094-0.045
			c-0.036-0.029-0.08-0.063-0.135-0.1c-0.055-0.036-0.121-0.069-0.197-0.1c-0.078-0.029-0.169-0.045-0.274-0.045
			c-0.216,0-0.382,0.084-0.497,0.25s-0.173,0.406-0.173,0.723c0,0.158,0.015,0.297,0.045,0.416s0.074,0.218,0.133,0.297
			c0.058,0.08,0.129,0.141,0.213,0.18c0.085,0.039,0.182,0.059,0.29,0.059c0.104,0,0.194-0.018,0.272-0.05s0.146-0.068,0.203-0.107
			c0.058-0.038,0.105-0.074,0.145-0.106c0.039-0.031,0.069-0.047,0.091-0.047c0.013,0,0.023,0.003,0.033,0.01
			c0.009,0.008,0.017,0.02,0.022,0.037c0.007,0.018,0.011,0.039,0.015,0.065C31.637,16.364,31.639,16.396,31.639,16.433z"/>
		<path fill="#999999" d="M34.326,15.474c0,0.07-0.018,0.121-0.053,0.15c-0.036,0.031-0.076,0.045-0.122,0.045h-1.614
			c0,0.137,0.014,0.26,0.041,0.368s0.073,0.202,0.137,0.28c0.064,0.078,0.146,0.139,0.249,0.18c0.103,0.042,0.228,0.063,0.375,0.063
			c0.117,0,0.221-0.01,0.313-0.027c0.091-0.02,0.17-0.041,0.236-0.064s0.121-0.045,0.164-0.064s0.075-0.028,0.098-0.028
			c0.013,0,0.023,0.003,0.034,0.009c0.01,0.008,0.018,0.017,0.022,0.029c0.006,0.013,0.01,0.03,0.013,0.053
			c0.003,0.023,0.004,0.051,0.004,0.084c0,0.023-0.001,0.043-0.003,0.061c-0.001,0.018-0.004,0.033-0.007,0.047
			c-0.002,0.014-0.007,0.025-0.013,0.036c-0.007,0.011-0.016,0.021-0.025,0.031c-0.01,0.011-0.039,0.026-0.088,0.05
			c-0.049,0.022-0.113,0.045-0.19,0.066c-0.078,0.021-0.169,0.041-0.271,0.059c-0.103,0.017-0.212,0.025-0.328,0.025
			c-0.201,0-0.378-0.027-0.529-0.084c-0.152-0.057-0.279-0.141-0.383-0.251s-0.182-0.249-0.234-0.417
			c-0.053-0.166-0.079-0.361-0.079-0.582c0-0.211,0.027-0.4,0.082-0.568c0.054-0.168,0.133-0.311,0.235-0.428
			s0.227-0.207,0.372-0.27c0.145-0.063,0.308-0.094,0.487-0.094c0.192,0,0.356,0.031,0.491,0.093
			c0.136,0.062,0.247,0.146,0.334,0.249c0.087,0.104,0.15,0.227,0.192,0.367c0.04,0.142,0.061,0.291,0.061,0.451V15.474z
			 M33.874,15.34c0.006-0.235-0.047-0.421-0.157-0.556s-0.274-0.201-0.492-0.201c-0.111,0-0.209,0.021-0.293,0.063
			s-0.154,0.098-0.211,0.166s-0.101,0.149-0.132,0.24c-0.031,0.093-0.048,0.188-0.052,0.288H33.874z"/>
		<path fill="#999999" d="M35.511,13.526c0,0.105-0.02,0.177-0.06,0.215s-0.113,0.057-0.221,0.057c-0.105,0-0.178-0.018-0.217-0.055
			s-0.059-0.107-0.059-0.211c0-0.105,0.021-0.178,0.061-0.216s0.113-0.058,0.221-0.058c0.104,0,0.177,0.02,0.216,0.057
			S35.511,13.423,35.511,13.526z M35.459,16.806c0,0.014-0.003,0.026-0.011,0.037c-0.007,0.01-0.019,0.018-0.035,0.025
			c-0.017,0.007-0.039,0.012-0.068,0.016s-0.066,0.006-0.111,0.006c-0.044,0-0.08-0.002-0.109-0.006
			c-0.028-0.004-0.052-0.009-0.069-0.016c-0.018-0.008-0.029-0.016-0.035-0.025c-0.007-0.011-0.01-0.023-0.01-0.037v-2.451
			c0-0.014,0.003-0.025,0.01-0.035c0.006-0.012,0.018-0.021,0.035-0.027c0.018-0.008,0.041-0.014,0.069-0.018
			c0.029-0.003,0.065-0.005,0.109-0.005c0.045,0,0.082,0.002,0.111,0.005c0.029,0.004,0.052,0.01,0.068,0.018
			c0.017,0.007,0.028,0.016,0.035,0.027c0.008,0.01,0.011,0.021,0.011,0.035V16.806z"/>
		<path fill="#999999" d="M38.545,15.542c0,0.214-0.023,0.406-0.069,0.576c-0.047,0.172-0.114,0.316-0.204,0.436
			s-0.201,0.211-0.334,0.274c-0.133,0.064-0.284,0.097-0.455,0.097c-0.072,0-0.14-0.008-0.201-0.021
			c-0.062-0.015-0.122-0.037-0.182-0.068c-0.059-0.031-0.117-0.07-0.175-0.117c-0.059-0.047-0.12-0.103-0.186-0.166v1.226
			c0,0.015-0.004,0.027-0.011,0.038c-0.008,0.012-0.02,0.02-0.035,0.027c-0.017,0.008-0.039,0.013-0.068,0.016
			c-0.029,0.004-0.066,0.006-0.111,0.006c-0.044,0-0.08-0.002-0.109-0.006c-0.029-0.003-0.053-0.008-0.069-0.016
			c-0.018-0.008-0.029-0.016-0.036-0.027c-0.006-0.011-0.009-0.023-0.009-0.038v-3.423c0-0.017,0.003-0.029,0.008-0.039
			c0.006-0.011,0.017-0.02,0.033-0.027c0.016-0.006,0.037-0.012,0.063-0.015s0.056-0.004,0.093-0.004
			c0.038,0,0.069,0.001,0.094,0.004s0.045,0.009,0.062,0.015c0.016,0.008,0.027,0.017,0.033,0.027c0.007,0.01,0.01,0.022,0.01,0.039
			v0.329c0.074-0.076,0.146-0.143,0.216-0.198c0.068-0.057,0.138-0.104,0.208-0.141c0.069-0.037,0.142-0.066,0.215-0.084
			c0.074-0.02,0.151-0.029,0.233-0.029c0.178,0,0.329,0.035,0.454,0.104c0.126,0.068,0.228,0.164,0.307,0.283
			c0.079,0.12,0.137,0.26,0.173,0.418C38.526,15.195,38.545,15.364,38.545,15.542z M38.079,15.593c0-0.125-0.01-0.246-0.028-0.363
			c-0.02-0.117-0.053-0.221-0.099-0.312c-0.047-0.091-0.109-0.163-0.188-0.218c-0.079-0.055-0.177-0.082-0.294-0.082
			c-0.059,0-0.116,0.009-0.173,0.025c-0.057,0.018-0.113,0.045-0.172,0.082s-0.12,0.086-0.184,0.146
			c-0.064,0.063-0.132,0.137-0.203,0.226v0.976c0.124,0.15,0.242,0.266,0.354,0.346s0.229,0.119,0.351,0.119
			c0.113,0,0.211-0.027,0.292-0.082s0.146-0.127,0.197-0.217c0.05-0.092,0.087-0.193,0.111-0.306
			C38.067,15.821,38.079,15.708,38.079,15.593z"/>
		<path fill="#999999" d="M40.471,16.626c0,0.053-0.004,0.094-0.012,0.125c-0.007,0.031-0.018,0.053-0.032,0.068
			c-0.015,0.014-0.036,0.027-0.065,0.041c-0.029,0.012-0.063,0.022-0.1,0.031c-0.037,0.008-0.076,0.014-0.118,0.02
			s-0.084,0.008-0.125,0.008c-0.127,0-0.236-0.016-0.327-0.05c-0.091-0.033-0.165-0.085-0.224-0.152
			c-0.058-0.068-0.101-0.154-0.126-0.259c-0.026-0.104-0.04-0.228-0.04-0.369v-1.433h-0.343c-0.027,0-0.049-0.015-0.065-0.044
			s-0.024-0.076-0.024-0.141c0-0.035,0.002-0.064,0.007-0.088c0.004-0.023,0.01-0.043,0.018-0.059
			c0.007-0.016,0.017-0.025,0.028-0.032s0.025-0.01,0.04-0.01h0.34V13.7c0-0.012,0.003-0.024,0.01-0.035
			c0.006-0.011,0.018-0.02,0.035-0.029c0.018-0.008,0.041-0.014,0.069-0.018c0.029-0.003,0.065-0.005,0.109-0.005
			c0.045,0,0.083,0.002,0.111,0.005c0.029,0.004,0.052,0.01,0.068,0.018c0.017,0.01,0.028,0.019,0.035,0.029
			c0.008,0.011,0.011,0.023,0.011,0.035v0.583h0.63c0.014,0,0.026,0.003,0.038,0.01c0.011,0.007,0.02,0.017,0.028,0.032
			c0.008,0.016,0.014,0.035,0.018,0.059s0.006,0.053,0.006,0.088c0,0.064-0.009,0.111-0.024,0.141
			c-0.017,0.029-0.039,0.044-0.065,0.044h-0.63v1.367c0,0.169,0.025,0.296,0.075,0.383s0.14,0.13,0.269,0.13
			c0.042,0,0.079-0.004,0.111-0.014c0.033-0.008,0.062-0.016,0.087-0.025c0.025-0.009,0.048-0.018,0.065-0.025
			c0.019-0.008,0.035-0.012,0.049-0.012c0.01,0,0.019,0.002,0.026,0.006c0.009,0.005,0.015,0.014,0.02,0.026
			c0.004,0.013,0.008,0.03,0.012,0.052S40.471,16.593,40.471,16.626z"/>
		<path fill="#999999" d="M18.263,20.419c0,0.047-0.005,0.08-0.016,0.098c-0.012,0.018-0.027,0.027-0.048,0.027H17.44
			c-0.021,0-0.038-0.01-0.049-0.028s-0.017-0.052-0.017-0.097c0-0.047,0.006-0.078,0.017-0.097s0.027-0.027,0.049-0.027h0.759
			c0.01,0,0.019,0.002,0.026,0.005c0.008,0.004,0.015,0.012,0.021,0.021c0.005,0.01,0.01,0.023,0.013,0.039
			S18.263,20.396,18.263,20.419z"/>
		<path fill="#999999" d="M19.401,20.419c0,0.047-0.006,0.08-0.017,0.098s-0.026,0.027-0.047,0.027h-0.759
			c-0.022,0-0.038-0.01-0.049-0.028c-0.012-0.019-0.017-0.052-0.017-0.097c0-0.047,0.005-0.078,0.017-0.097
			c0.011-0.019,0.026-0.027,0.049-0.027h0.759c0.01,0,0.019,0.002,0.026,0.005c0.008,0.004,0.015,0.012,0.02,0.021
			c0.006,0.01,0.01,0.023,0.013,0.039S19.401,20.396,19.401,20.419z"/>
		<path fill="#999999" d="M20.54,20.419c0,0.047-0.006,0.08-0.017,0.098s-0.026,0.027-0.047,0.027h-0.759
			c-0.022,0-0.039-0.01-0.05-0.028s-0.016-0.052-0.016-0.097c0-0.047,0.005-0.078,0.016-0.097s0.027-0.027,0.05-0.027h0.759
			c0.01,0,0.019,0.002,0.026,0.005c0.008,0.004,0.014,0.012,0.02,0.021s0.01,0.023,0.013,0.039S20.54,20.396,20.54,20.419z"/>
		<path fill="#999999" d="M21.678,20.419c0,0.047-0.005,0.08-0.016,0.098s-0.027,0.027-0.048,0.027h-0.759
			c-0.021,0-0.038-0.01-0.049-0.028s-0.017-0.052-0.017-0.097c0-0.047,0.006-0.078,0.017-0.097s0.027-0.027,0.049-0.027h0.759
			c0.01,0,0.019,0.002,0.026,0.005c0.008,0.004,0.015,0.012,0.021,0.021c0.005,0.01,0.01,0.023,0.013,0.039
			S21.678,20.396,21.678,20.419z"/>
		<path fill="#999999" d="M22.816,20.419c0,0.047-0.005,0.08-0.017,0.098c-0.011,0.018-0.026,0.027-0.047,0.027h-0.759
			c-0.021,0-0.038-0.01-0.049-0.028s-0.017-0.052-0.017-0.097c0-0.047,0.006-0.078,0.017-0.097s0.027-0.027,0.049-0.027h0.759
			c0.01,0,0.019,0.002,0.026,0.005c0.008,0.004,0.015,0.012,0.02,0.021c0.006,0.01,0.01,0.023,0.013,0.039
			C22.815,20.376,22.816,20.396,22.816,20.419z"/>
		<path fill="#999999" d="M23.955,20.419c0,0.047-0.006,0.08-0.017,0.098s-0.026,0.027-0.047,0.027h-0.759
			c-0.022,0-0.038-0.01-0.05-0.028c-0.011-0.019-0.016-0.052-0.016-0.097c0-0.047,0.005-0.078,0.016-0.097
			c0.012-0.019,0.027-0.027,0.05-0.027h0.759c0.01,0,0.019,0.002,0.026,0.005c0.008,0.004,0.015,0.012,0.02,0.021
			c0.006,0.01,0.01,0.023,0.013,0.039S23.955,20.396,23.955,20.419z"/>
		<path fill="#999999" d="M25.094,20.419c0,0.047-0.006,0.08-0.017,0.098s-0.026,0.027-0.048,0.027h-0.759
			c-0.021,0-0.038-0.01-0.049-0.028s-0.017-0.052-0.017-0.097c0-0.047,0.006-0.078,0.017-0.097s0.027-0.027,0.049-0.027h0.759
			c0.01,0,0.019,0.002,0.026,0.005c0.009,0.004,0.015,0.012,0.021,0.021c0.005,0.01,0.01,0.023,0.013,0.039
			S25.094,20.396,25.094,20.419z"/>
		<path fill="#999999" d="M26.231,20.419c0,0.047-0.005,0.08-0.016,0.098c-0.012,0.018-0.027,0.027-0.048,0.027h-0.759
			c-0.021,0-0.038-0.01-0.049-0.028s-0.017-0.052-0.017-0.097c0-0.047,0.006-0.078,0.017-0.097s0.027-0.027,0.049-0.027h0.759
			c0.01,0,0.019,0.002,0.026,0.005c0.008,0.004,0.015,0.012,0.021,0.021c0.005,0.01,0.01,0.023,0.013,0.039
			S26.231,20.396,26.231,20.419z"/>
		<path fill="#999999" d="M27.37,20.419c0,0.047-0.006,0.08-0.017,0.098s-0.026,0.027-0.047,0.027h-0.759
			c-0.022,0-0.038-0.01-0.049-0.028c-0.012-0.019-0.017-0.052-0.017-0.097c0-0.047,0.005-0.078,0.017-0.097
			c0.011-0.019,0.026-0.027,0.049-0.027h0.759c0.01,0,0.019,0.002,0.026,0.005c0.008,0.004,0.015,0.012,0.02,0.021
			c0.006,0.01,0.01,0.023,0.013,0.039S27.37,20.396,27.37,20.419z"/>
		<path fill="#999999" d="M28.509,20.419c0,0.047-0.006,0.08-0.017,0.098s-0.026,0.027-0.047,0.027h-0.76
			c-0.021,0-0.038-0.01-0.049-0.028s-0.016-0.052-0.016-0.097c0-0.047,0.005-0.078,0.016-0.097s0.027-0.027,0.049-0.027h0.76
			c0.01,0,0.019,0.002,0.026,0.005c0.008,0.004,0.014,0.012,0.02,0.021s0.01,0.023,0.013,0.039S28.509,20.396,28.509,20.419z"/>
		<path fill="#999999" d="M29.646,20.419c0,0.047-0.005,0.08-0.016,0.098s-0.027,0.027-0.048,0.027h-0.759
			c-0.021,0-0.038-0.01-0.049-0.028s-0.017-0.052-0.017-0.097c0-0.047,0.006-0.078,0.017-0.097s0.027-0.027,0.049-0.027h0.759
			c0.01,0,0.019,0.002,0.026,0.005c0.008,0.004,0.015,0.012,0.021,0.021c0.005,0.01,0.01,0.023,0.013,0.039
			S29.646,20.396,29.646,20.419z"/>
		<path fill="#999999" d="M30.785,20.419c0,0.047-0.005,0.08-0.017,0.098c-0.011,0.018-0.026,0.027-0.047,0.027h-0.759
			c-0.021,0-0.038-0.01-0.049-0.028s-0.017-0.052-0.017-0.097c0-0.047,0.006-0.078,0.017-0.097s0.027-0.027,0.049-0.027h0.759
			c0.01,0,0.019,0.002,0.026,0.005c0.008,0.004,0.015,0.012,0.02,0.021c0.006,0.01,0.01,0.023,0.013,0.039
			C30.784,20.376,30.785,20.396,30.785,20.419z"/>
		<path fill="#999999" d="M31.924,20.419c0,0.047-0.006,0.08-0.017,0.098s-0.026,0.027-0.047,0.027h-0.759
			c-0.022,0-0.038-0.01-0.05-0.028c-0.011-0.019-0.016-0.052-0.016-0.097c0-0.047,0.005-0.078,0.016-0.097
			c0.012-0.019,0.027-0.027,0.05-0.027h0.759c0.01,0,0.019,0.002,0.026,0.005c0.008,0.004,0.015,0.012,0.02,0.021
			c0.006,0.01,0.01,0.023,0.013,0.039S31.924,20.396,31.924,20.419z"/>
		<path fill="#999999" d="M33.063,20.419c0,0.047-0.006,0.08-0.017,0.098s-0.026,0.027-0.048,0.027h-0.759
			c-0.021,0-0.038-0.01-0.049-0.028s-0.017-0.052-0.017-0.097c0-0.047,0.006-0.078,0.017-0.097s0.027-0.027,0.049-0.027h0.759
			c0.01,0,0.019,0.002,0.026,0.005c0.008,0.004,0.015,0.012,0.021,0.021c0.005,0.01,0.01,0.023,0.013,0.039
			S33.063,20.396,33.063,20.419z"/>
		<path fill="#999999" d="M34.2,20.419c0,0.047-0.005,0.08-0.016,0.098c-0.012,0.018-0.027,0.027-0.048,0.027h-0.759
			c-0.021,0-0.038-0.01-0.049-0.028s-0.017-0.052-0.017-0.097c0-0.047,0.006-0.078,0.017-0.097s0.027-0.027,0.049-0.027h0.759
			c0.01,0,0.019,0.002,0.026,0.005c0.008,0.004,0.015,0.012,0.021,0.021c0.005,0.01,0.009,0.023,0.013,0.039
			C34.199,20.376,34.2,20.396,34.2,20.419z"/>
		<path fill="#999999" d="M35.339,20.419c0,0.047-0.006,0.08-0.017,0.098s-0.026,0.027-0.047,0.027h-0.759
			c-0.022,0-0.038-0.01-0.049-0.028c-0.012-0.019-0.017-0.052-0.017-0.097c0-0.047,0.005-0.078,0.017-0.097
			c0.011-0.019,0.026-0.027,0.049-0.027h0.759c0.01,0,0.019,0.002,0.026,0.005c0.008,0.004,0.015,0.012,0.02,0.021
			c0.006,0.01,0.01,0.023,0.013,0.039S35.339,20.396,35.339,20.419z"/>
		<path fill="#999999" d="M36.478,20.419c0,0.047-0.006,0.08-0.017,0.098s-0.026,0.027-0.047,0.027h-0.76
			c-0.021,0-0.038-0.01-0.049-0.028s-0.016-0.052-0.016-0.097c0-0.047,0.005-0.078,0.016-0.097s0.027-0.027,0.049-0.027h0.76
			c0.01,0,0.018,0.002,0.026,0.005c0.008,0.004,0.014,0.012,0.02,0.021s0.01,0.023,0.013,0.039S36.478,20.396,36.478,20.419z"/>
		<path fill="#999999" d="M37.615,20.419c0,0.047-0.005,0.08-0.016,0.098c-0.012,0.018-0.027,0.027-0.048,0.027h-0.759
			c-0.021,0-0.038-0.01-0.049-0.028s-0.017-0.052-0.017-0.097c0-0.047,0.006-0.078,0.017-0.097s0.027-0.027,0.049-0.027h0.759
			c0.01,0,0.019,0.002,0.026,0.005c0.008,0.004,0.015,0.012,0.021,0.021c0.005,0.01,0.01,0.023,0.013,0.039
			S37.615,20.396,37.615,20.419z"/>
		<path fill="#999999" d="M38.754,20.419c0,0.047-0.005,0.08-0.017,0.098c-0.011,0.018-0.026,0.027-0.047,0.027h-0.759
			c-0.021,0-0.038-0.01-0.049-0.028s-0.017-0.052-0.017-0.097c0-0.047,0.006-0.078,0.017-0.097s0.027-0.027,0.049-0.027h0.759
			c0.01,0,0.019,0.002,0.026,0.005c0.008,0.004,0.015,0.012,0.02,0.021c0.006,0.01,0.01,0.023,0.013,0.039
			C38.753,20.376,38.754,20.396,38.754,20.419z"/>
		<path fill="#999999" d="M39.893,20.419c0,0.047-0.006,0.08-0.017,0.098s-0.026,0.027-0.047,0.027H39.07
			c-0.022,0-0.038-0.01-0.05-0.028c-0.011-0.019-0.016-0.052-0.016-0.097c0-0.047,0.005-0.078,0.016-0.097
			c0.012-0.019,0.027-0.027,0.05-0.027h0.759c0.01,0,0.019,0.002,0.026,0.005c0.008,0.004,0.015,0.012,0.02,0.021
			c0.006,0.01,0.01,0.023,0.013,0.039S39.893,20.396,39.893,20.419z"/>
		<path fill="#999999" d="M41.031,20.419c0,0.047-0.006,0.08-0.017,0.098s-0.026,0.027-0.048,0.027h-0.759
			c-0.021,0-0.038-0.01-0.049-0.028s-0.017-0.052-0.017-0.097c0-0.047,0.006-0.078,0.017-0.097s0.027-0.027,0.049-0.027h0.759
			c0.01,0,0.019,0.002,0.026,0.005c0.008,0.004,0.015,0.012,0.021,0.021c0.005,0.01,0.01,0.023,0.013,0.039
			S41.031,20.396,41.031,20.419z"/>
		<path fill="#999999" d="M42.169,20.419c0,0.047-0.005,0.08-0.017,0.098c-0.011,0.018-0.026,0.027-0.047,0.027h-0.759
			c-0.021,0-0.038-0.01-0.049-0.028s-0.017-0.052-0.017-0.097c0-0.047,0.006-0.078,0.017-0.097s0.027-0.027,0.049-0.027h0.759
			c0.01,0,0.019,0.002,0.026,0.005c0.008,0.004,0.015,0.012,0.021,0.021c0.005,0.01,0.009,0.023,0.013,0.039
			C42.168,20.376,42.169,20.396,42.169,20.419z"/>
		<path fill="#999999" d="M43.308,20.419c0,0.047-0.006,0.08-0.017,0.098s-0.026,0.027-0.047,0.027h-0.759
			c-0.022,0-0.038-0.01-0.049-0.028c-0.012-0.019-0.017-0.052-0.017-0.097c0-0.047,0.005-0.078,0.017-0.097
			c0.011-0.019,0.026-0.027,0.049-0.027h0.759c0.01,0,0.019,0.002,0.026,0.005c0.008,0.004,0.015,0.012,0.02,0.021
			c0.006,0.01,0.01,0.023,0.013,0.039S43.308,20.396,43.308,20.419z"/>
		<path fill="#999999" d="M44.446,20.419c0,0.047-0.006,0.08-0.017,0.098s-0.026,0.027-0.047,0.027h-0.76
			c-0.021,0-0.038-0.01-0.049-0.028s-0.017-0.052-0.017-0.097c0-0.047,0.006-0.078,0.017-0.097s0.027-0.027,0.049-0.027h0.76
			c0.009,0,0.018,0.002,0.026,0.005c0.008,0.004,0.014,0.012,0.02,0.021s0.01,0.023,0.013,0.039S44.446,20.396,44.446,20.419z"/>
		<path fill="#999999" d="M45.584,20.419c0,0.047-0.005,0.08-0.016,0.098c-0.012,0.018-0.027,0.027-0.048,0.027h-0.759
			c-0.021,0-0.038-0.01-0.049-0.028s-0.017-0.052-0.017-0.097c0-0.047,0.006-0.078,0.017-0.097s0.027-0.027,0.049-0.027h0.759
			c0.01,0,0.019,0.002,0.026,0.005c0.008,0.004,0.015,0.012,0.021,0.021c0.005,0.01,0.01,0.023,0.013,0.039
			S45.584,20.396,45.584,20.419z"/>
		<path fill="#999999" d="M46.723,20.419c0,0.047-0.006,0.08-0.017,0.098s-0.026,0.027-0.047,0.027H45.9
			c-0.021,0-0.038-0.01-0.049-0.028c-0.012-0.019-0.017-0.052-0.017-0.097c0-0.047,0.005-0.078,0.017-0.097
			c0.011-0.019,0.027-0.027,0.049-0.027h0.759c0.01,0,0.019,0.002,0.026,0.005c0.008,0.004,0.015,0.012,0.02,0.021
			c0.006,0.01,0.01,0.023,0.013,0.039C46.722,20.376,46.723,20.396,46.723,20.419z"/>
		<path fill="#999999" d="M17.874,25.75c0,0.01-0.002,0.019-0.007,0.025s-0.014,0.013-0.025,0.017
			c-0.012,0.005-0.028,0.009-0.048,0.012c-0.021,0.003-0.045,0.004-0.075,0.004c-0.029,0-0.055-0.001-0.075-0.004
			s-0.036-0.007-0.049-0.012c-0.012-0.004-0.021-0.01-0.025-0.017s-0.007-0.016-0.007-0.025v-2.255c0-0.01,0.002-0.018,0.008-0.025
			s0.015-0.014,0.027-0.018s0.029-0.008,0.049-0.011c0.021-0.003,0.044-0.005,0.072-0.005c0.03,0,0.055,0.002,0.075,0.005
			c0.02,0.003,0.036,0.007,0.048,0.011s0.021,0.01,0.025,0.018s0.007,0.016,0.007,0.025V25.75z"/>
		<path fill="#999999" d="M19.314,25.632c0,0.035-0.003,0.063-0.008,0.084c-0.005,0.021-0.012,0.035-0.021,0.045
			s-0.024,0.02-0.044,0.027c-0.019,0.009-0.041,0.016-0.065,0.021c-0.025,0.005-0.052,0.01-0.079,0.014
			c-0.028,0.003-0.056,0.005-0.084,0.005c-0.085,0-0.157-0.011-0.218-0.034c-0.061-0.021-0.11-0.056-0.148-0.102
			c-0.039-0.045-0.067-0.103-0.085-0.172c-0.018-0.07-0.026-0.152-0.026-0.246v-0.955h-0.229c-0.019,0-0.033-0.01-0.044-0.029
			s-0.016-0.051-0.016-0.094c0-0.023,0.001-0.043,0.004-0.059s0.007-0.029,0.012-0.039s0.012-0.018,0.02-0.021
			s0.017-0.006,0.026-0.006h0.227v-0.389c0-0.009,0.002-0.018,0.007-0.023c0.004-0.008,0.012-0.014,0.023-0.02
			s0.026-0.01,0.046-0.012s0.044-0.004,0.073-0.004c0.03,0,0.055,0.002,0.074,0.004s0.034,0.006,0.045,0.012s0.02,0.012,0.024,0.02
			c0.004,0.006,0.007,0.015,0.007,0.023v0.389h0.419c0.01,0,0.019,0.002,0.025,0.006c0.008,0.004,0.014,0.012,0.02,0.021
			s0.01,0.023,0.012,0.039c0.003,0.016,0.004,0.035,0.004,0.059c0,0.043-0.006,0.074-0.017,0.094s-0.025,0.029-0.044,0.029h-0.419
			v0.912c0,0.111,0.017,0.197,0.05,0.254c0.033,0.059,0.093,0.087,0.179,0.087c0.028,0,0.053-0.003,0.074-0.009
			c0.022-0.005,0.042-0.011,0.059-0.017c0.017-0.007,0.031-0.013,0.044-0.018c0.012-0.005,0.022-0.008,0.032-0.008
			c0.006,0,0.012,0.001,0.018,0.005c0.005,0.002,0.01,0.008,0.013,0.017s0.006,0.021,0.008,0.034
			C19.313,25.593,19.314,25.61,19.314,25.632z"/>
		<path fill="#999999" d="M21.064,24.864c0,0.047-0.012,0.08-0.036,0.101c-0.023,0.021-0.05,0.03-0.081,0.03h-1.075
			c0,0.09,0.009,0.172,0.026,0.244c0.019,0.073,0.049,0.136,0.092,0.188c0.042,0.053,0.098,0.092,0.166,0.12s0.151,0.042,0.25,0.042
			c0.078,0,0.147-0.007,0.208-0.02s0.113-0.027,0.157-0.043c0.045-0.016,0.081-0.029,0.11-0.043c0.028-0.012,0.05-0.019,0.064-0.019
			c0.009,0,0.016,0.003,0.022,0.007s0.012,0.01,0.016,0.02c0.004,0.008,0.007,0.02,0.009,0.035c0.001,0.015,0.002,0.033,0.002,0.055
			c0,0.016,0,0.029-0.001,0.041c-0.002,0.012-0.003,0.021-0.005,0.031c-0.002,0.009-0.005,0.018-0.009,0.023
			c-0.005,0.008-0.01,0.016-0.017,0.021c-0.007,0.007-0.026,0.018-0.06,0.033c-0.032,0.015-0.074,0.029-0.127,0.044
			c-0.052,0.015-0.112,0.028-0.181,0.039c-0.068,0.012-0.141,0.017-0.219,0.017c-0.134,0-0.252-0.018-0.353-0.056
			c-0.102-0.038-0.187-0.093-0.256-0.167c-0.068-0.074-0.121-0.166-0.155-0.277c-0.035-0.111-0.053-0.241-0.053-0.389
			c0-0.141,0.018-0.268,0.054-0.379c0.037-0.111,0.089-0.207,0.157-0.285s0.151-0.138,0.248-0.18
			c0.097-0.041,0.205-0.063,0.325-0.063c0.128,0,0.237,0.021,0.327,0.063c0.091,0.041,0.165,0.096,0.223,0.166
			c0.059,0.068,0.101,0.15,0.128,0.244s0.041,0.194,0.041,0.301V24.864z M20.763,24.774c0.004-0.156-0.031-0.28-0.104-0.369
			c-0.074-0.09-0.184-0.135-0.328-0.135c-0.074,0-0.14,0.014-0.195,0.041c-0.057,0.028-0.104,0.065-0.141,0.111
			c-0.038,0.046-0.067,0.1-0.088,0.16c-0.021,0.062-0.032,0.125-0.034,0.191H20.763z"/>
		<path fill="#999999" d="M23.944,25.752c0,0.01-0.003,0.019-0.008,0.024c-0.005,0.007-0.013,0.012-0.023,0.018
			c-0.011,0.004-0.026,0.008-0.045,0.011c-0.02,0.003-0.044,0.003-0.073,0.003c-0.03,0-0.055,0-0.074-0.003
			s-0.035-0.007-0.046-0.011c-0.012-0.006-0.021-0.011-0.024-0.018c-0.005-0.006-0.008-0.015-0.008-0.024v-0.993
			c0-0.068-0.006-0.132-0.019-0.189c-0.012-0.057-0.031-0.105-0.058-0.146s-0.061-0.072-0.102-0.094
			c-0.041-0.022-0.09-0.033-0.146-0.033c-0.069,0-0.138,0.026-0.208,0.08c-0.069,0.053-0.146,0.131-0.229,0.234v1.142
			c0,0.01-0.002,0.019-0.007,0.024c-0.005,0.007-0.014,0.012-0.024,0.018c-0.012,0.004-0.027,0.008-0.047,0.011
			s-0.043,0.003-0.072,0.003c-0.028,0-0.052,0-0.072-0.003c-0.02-0.003-0.035-0.007-0.047-0.011
			c-0.012-0.006-0.02-0.011-0.023-0.018c-0.005-0.006-0.007-0.015-0.007-0.024v-0.993c0-0.068-0.007-0.132-0.02-0.189
			c-0.014-0.057-0.033-0.105-0.061-0.146c-0.026-0.041-0.06-0.072-0.101-0.094c-0.04-0.022-0.088-0.033-0.144-0.033
			c-0.069,0-0.139,0.026-0.209,0.08c-0.07,0.053-0.146,0.131-0.229,0.234v1.142c0,0.01-0.002,0.019-0.007,0.024
			c-0.005,0.007-0.013,0.012-0.023,0.018c-0.011,0.004-0.026,0.008-0.046,0.011c-0.019,0.003-0.044,0.003-0.074,0.003
			c-0.029,0-0.053,0-0.072-0.003s-0.035-0.007-0.047-0.011c-0.011-0.006-0.019-0.011-0.023-0.018
			c-0.004-0.006-0.006-0.015-0.006-0.024v-1.634c0-0.01,0.002-0.018,0.005-0.025c0.004-0.006,0.011-0.012,0.022-0.018
			c0.011-0.006,0.024-0.01,0.041-0.011c0.018-0.002,0.04-0.003,0.067-0.003c0.026,0,0.049,0.001,0.066,0.003
			c0.018,0.001,0.031,0.005,0.041,0.011s0.017,0.012,0.021,0.018c0.005,0.008,0.007,0.016,0.007,0.025v0.216
			c0.092-0.103,0.181-0.179,0.268-0.226c0.087-0.049,0.174-0.072,0.263-0.072c0.067,0,0.128,0.008,0.182,0.023
			c0.055,0.016,0.102,0.038,0.143,0.066c0.042,0.028,0.076,0.063,0.105,0.102s0.054,0.084,0.073,0.132
			c0.054-0.06,0.105-0.109,0.155-0.151c0.049-0.041,0.096-0.074,0.142-0.1c0.045-0.025,0.089-0.043,0.132-0.055
			s0.087-0.018,0.13-0.018c0.105,0,0.194,0.019,0.266,0.055c0.071,0.037,0.129,0.087,0.173,0.148
			c0.044,0.063,0.076,0.135,0.095,0.217c0.019,0.084,0.028,0.171,0.028,0.263V25.752z"/>
		<path fill="#999999" d="M26.736,25.674c0,0.022-0.002,0.042-0.005,0.058c-0.004,0.016-0.009,0.029-0.015,0.039
			c-0.007,0.01-0.014,0.016-0.021,0.021s-0.016,0.007-0.024,0.007h-1.228c-0.008,0-0.016-0.002-0.023-0.007
			c-0.007-0.005-0.014-0.011-0.021-0.021s-0.012-0.023-0.016-0.039s-0.006-0.035-0.006-0.058s0.002-0.04,0.006-0.056
			s0.008-0.029,0.014-0.039c0.006-0.011,0.012-0.019,0.02-0.023c0.008-0.006,0.017-0.009,0.026-0.009h0.49v-1.786l-0.453,0.27
			c-0.023,0.013-0.042,0.02-0.056,0.021c-0.014,0.004-0.025,0-0.034-0.008c-0.008-0.008-0.014-0.021-0.017-0.039
			c-0.003-0.018-0.005-0.041-0.005-0.068c0-0.021,0.001-0.039,0.003-0.053c0.002-0.015,0.005-0.027,0.008-0.037
			c0.004-0.01,0.009-0.018,0.016-0.025c0.007-0.007,0.016-0.014,0.026-0.021l0.541-0.347c0.005-0.003,0.011-0.007,0.019-0.009
			c0.007-0.002,0.016-0.005,0.027-0.008c0.011-0.002,0.023-0.004,0.038-0.004c0.015-0.001,0.032-0.001,0.054-0.001
			c0.029,0,0.054,0.001,0.073,0.003c0.02,0.003,0.034,0.006,0.045,0.011c0.011,0.004,0.019,0.009,0.022,0.017
			c0.003,0.006,0.005,0.014,0.005,0.021v2.064h0.425c0.01,0,0.019,0.003,0.027,0.009c0.009,0.005,0.016,0.013,0.021,0.023
			c0.006,0.01,0.01,0.023,0.013,0.039C26.735,25.634,26.736,25.651,26.736,25.674z"/>
		<path fill="#999999" d="M41.243,25.674c0,0.022-0.002,0.042-0.006,0.058c-0.003,0.016-0.008,0.029-0.014,0.039
			c-0.007,0.01-0.014,0.016-0.021,0.021s-0.016,0.007-0.024,0.007H39.95c-0.008,0-0.016-0.002-0.023-0.007
			c-0.007-0.005-0.014-0.011-0.021-0.021s-0.012-0.023-0.016-0.039s-0.006-0.035-0.006-0.058s0.002-0.04,0.006-0.056
			s0.008-0.029,0.014-0.039c0.005-0.011,0.012-0.019,0.02-0.023c0.008-0.006,0.017-0.009,0.026-0.009h0.49v-1.786l-0.454,0.27
			c-0.022,0.013-0.041,0.02-0.055,0.021c-0.014,0.004-0.025,0-0.034-0.008c-0.008-0.008-0.014-0.021-0.017-0.039
			c-0.003-0.018-0.005-0.041-0.005-0.068c0-0.021,0.001-0.039,0.003-0.053c0.002-0.015,0.005-0.027,0.008-0.037
			c0.004-0.01,0.009-0.018,0.016-0.025c0.007-0.007,0.016-0.014,0.026-0.021l0.541-0.347c0.005-0.003,0.011-0.007,0.019-0.009
			c0.007-0.002,0.016-0.005,0.026-0.008c0.012-0.002,0.024-0.004,0.039-0.004c0.014-0.001,0.032-0.001,0.054-0.001
			c0.029,0,0.054,0.001,0.073,0.003c0.02,0.003,0.034,0.006,0.045,0.011c0.011,0.004,0.019,0.009,0.021,0.017
			c0.004,0.006,0.006,0.014,0.006,0.021v2.064h0.425c0.01,0,0.019,0.003,0.027,0.009c0.009,0.005,0.016,0.013,0.021,0.023
			c0.006,0.01,0.01,0.023,0.013,0.039S41.243,25.651,41.243,25.674z"/>
		<path fill="#999999" d="M42.109,25.599c0,0.086-0.015,0.145-0.043,0.172c-0.028,0.029-0.08,0.043-0.155,0.043
			c-0.072,0-0.123-0.014-0.15-0.041c-0.028-0.028-0.042-0.084-0.042-0.168c0-0.086,0.015-0.143,0.043-0.172
			c0.028-0.027,0.08-0.042,0.155-0.042c0.072,0,0.123,0.015,0.15,0.042C42.096,25.46,42.109,25.517,42.109,25.599z"/>
		<path fill="#999999" d="M44.139,24.617c0,0.181-0.014,0.345-0.042,0.493c-0.028,0.149-0.076,0.277-0.142,0.385
			c-0.066,0.107-0.152,0.189-0.259,0.248s-0.238,0.088-0.395,0.088c-0.147,0-0.271-0.025-0.373-0.078
			c-0.101-0.053-0.183-0.131-0.244-0.232c-0.062-0.103-0.105-0.229-0.132-0.378c-0.025-0.149-0.039-0.321-0.039-0.515
			c0-0.18,0.015-0.344,0.044-0.492c0.029-0.15,0.076-0.278,0.142-0.386c0.065-0.106,0.151-0.19,0.258-0.249s0.237-0.088,0.393-0.088
			c0.148,0,0.273,0.027,0.375,0.079c0.101,0.053,0.182,0.13,0.244,0.232c0.062,0.103,0.105,0.229,0.131,0.378
			C44.126,24.252,44.139,24.423,44.139,24.617z M43.819,24.64c0-0.118-0.004-0.224-0.013-0.316
			c-0.008-0.094-0.021-0.176-0.037-0.247s-0.037-0.133-0.063-0.185c-0.026-0.051-0.058-0.094-0.094-0.127s-0.077-0.058-0.124-0.072
			c-0.047-0.016-0.099-0.023-0.157-0.023c-0.103,0-0.187,0.025-0.25,0.073c-0.064,0.048-0.115,0.114-0.152,0.2
			c-0.037,0.084-0.062,0.184-0.075,0.297s-0.02,0.236-0.02,0.367c0,0.176,0.009,0.324,0.027,0.447
			c0.018,0.123,0.047,0.223,0.086,0.301c0.039,0.077,0.09,0.133,0.15,0.168c0.062,0.035,0.136,0.053,0.223,0.053
			c0.067,0,0.127-0.01,0.179-0.032c0.052-0.021,0.096-0.053,0.133-0.093c0.037-0.041,0.067-0.09,0.092-0.146
			c0.023-0.057,0.043-0.12,0.058-0.189c0.015-0.068,0.024-0.144,0.03-0.225C43.816,24.81,43.819,24.726,43.819,24.64z"/>
		<path fill="#999999" d="M46.023,24.617c0,0.181-0.014,0.345-0.042,0.493c-0.029,0.149-0.076,0.277-0.142,0.385
			c-0.066,0.107-0.152,0.189-0.259,0.248s-0.238,0.088-0.395,0.088c-0.147,0-0.271-0.025-0.373-0.078
			c-0.101-0.053-0.183-0.131-0.244-0.232c-0.062-0.103-0.105-0.229-0.132-0.378c-0.025-0.149-0.039-0.321-0.039-0.515
			c0-0.18,0.015-0.344,0.044-0.492c0.029-0.15,0.076-0.278,0.142-0.386c0.065-0.106,0.151-0.19,0.258-0.249s0.237-0.088,0.393-0.088
			c0.148,0,0.273,0.027,0.374,0.079c0.102,0.053,0.183,0.13,0.245,0.232c0.062,0.103,0.105,0.229,0.131,0.378
			C46.011,24.252,46.023,24.423,46.023,24.617z M45.704,24.64c0-0.118-0.004-0.224-0.013-0.316
			c-0.009-0.094-0.021-0.176-0.037-0.247s-0.037-0.133-0.063-0.185c-0.026-0.051-0.058-0.094-0.094-0.127s-0.078-0.058-0.124-0.072
			c-0.047-0.016-0.1-0.023-0.157-0.023c-0.103,0-0.187,0.025-0.251,0.073c-0.063,0.048-0.114,0.114-0.151,0.2
			c-0.037,0.084-0.062,0.184-0.075,0.297s-0.02,0.236-0.02,0.367c0,0.176,0.009,0.324,0.026,0.447
			c0.019,0.123,0.047,0.223,0.087,0.301c0.039,0.077,0.089,0.133,0.15,0.168s0.136,0.053,0.223,0.053
			c0.067,0,0.127-0.01,0.179-0.032c0.052-0.021,0.096-0.053,0.133-0.093c0.036-0.041,0.067-0.09,0.092-0.146
			c0.023-0.057,0.043-0.12,0.058-0.189c0.015-0.068,0.024-0.144,0.03-0.225C45.701,24.81,45.704,24.726,45.704,24.64z"/>
		<path fill="#999999" d="M17.874,30.212c0,0.01-0.002,0.019-0.007,0.025c-0.005,0.008-0.014,0.014-0.025,0.018
			s-0.028,0.008-0.048,0.011c-0.021,0.003-0.045,0.005-0.075,0.005c-0.029,0-0.055-0.002-0.075-0.005s-0.036-0.007-0.049-0.011
			c-0.012-0.004-0.021-0.01-0.025-0.018c-0.005-0.007-0.007-0.016-0.007-0.025v-2.254c0-0.01,0.002-0.02,0.008-0.026
			s0.015-0.013,0.027-0.017c0.013-0.005,0.029-0.008,0.049-0.012c0.021-0.002,0.044-0.004,0.072-0.004
			c0.03,0,0.055,0.002,0.075,0.004c0.02,0.004,0.036,0.007,0.048,0.012c0.012,0.004,0.021,0.01,0.025,0.017s0.007,0.017,0.007,0.026
			V30.212z"/>
		<path fill="#999999" d="M19.314,30.095c0,0.035-0.003,0.063-0.008,0.083s-0.012,0.036-0.021,0.046s-0.024,0.018-0.044,0.027
			c-0.019,0.008-0.041,0.015-0.065,0.02c-0.025,0.006-0.052,0.011-0.079,0.014c-0.028,0.004-0.056,0.006-0.084,0.006
			c-0.085,0-0.157-0.011-0.218-0.033s-0.11-0.057-0.148-0.102c-0.039-0.045-0.067-0.104-0.085-0.173s-0.026-0.151-0.026-0.245
			v-0.955h-0.229c-0.019,0-0.033-0.01-0.044-0.029s-0.016-0.051-0.016-0.095c0-0.022,0.001-0.042,0.004-0.058
			s0.007-0.029,0.012-0.039c0.005-0.011,0.012-0.018,0.02-0.022s0.017-0.007,0.026-0.007h0.227v-0.389
			c0-0.008,0.002-0.016,0.007-0.023c0.004-0.007,0.012-0.014,0.023-0.019s0.026-0.009,0.046-0.012s0.044-0.003,0.073-0.003
			c0.03,0,0.055,0,0.074,0.003s0.034,0.007,0.045,0.012s0.02,0.012,0.024,0.019c0.004,0.008,0.007,0.016,0.007,0.023v0.389h0.419
			c0.01,0,0.019,0.002,0.025,0.007c0.008,0.005,0.014,0.012,0.02,0.022c0.006,0.01,0.01,0.023,0.012,0.039
			c0.003,0.016,0.004,0.035,0.004,0.058c0,0.044-0.006,0.075-0.017,0.095s-0.025,0.029-0.044,0.029h-0.419v0.91
			c0,0.113,0.017,0.198,0.05,0.256c0.033,0.057,0.093,0.086,0.179,0.086c0.028,0,0.053-0.002,0.074-0.008
			c0.022-0.006,0.042-0.012,0.059-0.018s0.031-0.012,0.044-0.018c0.012-0.005,0.022-0.008,0.032-0.008
			c0.006,0,0.012,0.002,0.018,0.004c0.005,0.004,0.01,0.01,0.013,0.018c0.003,0.009,0.006,0.021,0.008,0.035
			C19.313,30.054,19.314,30.072,19.314,30.095z"/>
		<path fill="#999999" d="M21.064,29.326c0,0.048-0.012,0.081-0.036,0.101c-0.023,0.02-0.05,0.03-0.081,0.03h-1.075
			c0,0.091,0.009,0.173,0.026,0.245c0.019,0.072,0.049,0.135,0.092,0.188c0.042,0.051,0.098,0.092,0.166,0.119
			s0.151,0.042,0.25,0.042c0.078,0,0.147-0.007,0.208-0.019c0.061-0.014,0.113-0.027,0.157-0.043c0.045-0.016,0.081-0.03,0.11-0.043
			c0.028-0.013,0.05-0.02,0.064-0.02c0.009,0,0.016,0.002,0.022,0.007s0.012,0.011,0.016,0.019c0.004,0.009,0.007,0.021,0.009,0.035
			c0.001,0.016,0.002,0.034,0.002,0.057c0,0.016,0,0.029-0.001,0.041c-0.002,0.011-0.003,0.021-0.005,0.03s-0.005,0.017-0.009,0.024
			c-0.005,0.008-0.01,0.014-0.017,0.021c-0.007,0.006-0.026,0.018-0.06,0.032c-0.032,0.015-0.074,0.03-0.127,0.044
			c-0.052,0.016-0.112,0.027-0.181,0.039s-0.141,0.018-0.219,0.018c-0.134,0-0.252-0.019-0.353-0.057
			c-0.102-0.037-0.187-0.093-0.256-0.166c-0.068-0.074-0.121-0.167-0.155-0.278c-0.035-0.111-0.053-0.241-0.053-0.389
			c0-0.14,0.018-0.267,0.054-0.378c0.037-0.113,0.089-0.207,0.157-0.285s0.151-0.139,0.248-0.18
			c0.097-0.043,0.205-0.063,0.325-0.063c0.128,0,0.237,0.02,0.327,0.061c0.091,0.041,0.165,0.098,0.223,0.166
			c0.059,0.07,0.101,0.152,0.128,0.246s0.041,0.193,0.041,0.301V29.326z M20.763,29.237c0.004-0.157-0.031-0.281-0.104-0.371
			c-0.074-0.089-0.184-0.134-0.328-0.134c-0.074,0-0.14,0.015-0.195,0.042c-0.057,0.027-0.104,0.064-0.141,0.111
			c-0.038,0.045-0.067,0.1-0.088,0.16s-0.032,0.125-0.034,0.191H20.763z"/>
		<path fill="#999999" d="M23.944,30.214c0,0.01-0.003,0.018-0.008,0.025c-0.005,0.006-0.013,0.012-0.023,0.017
			s-0.026,0.009-0.045,0.011c-0.02,0.002-0.044,0.004-0.073,0.004c-0.03,0-0.055-0.002-0.074-0.004s-0.035-0.006-0.046-0.011
			c-0.012-0.005-0.021-0.011-0.024-0.017c-0.005-0.008-0.008-0.016-0.008-0.025v-0.992c0-0.07-0.006-0.133-0.019-0.189
			c-0.012-0.057-0.031-0.105-0.058-0.146c-0.026-0.042-0.061-0.073-0.102-0.096c-0.041-0.021-0.09-0.032-0.146-0.032
			c-0.069,0-0.138,0.026-0.208,0.08c-0.069,0.054-0.146,0.132-0.229,0.234v1.142c0,0.01-0.002,0.018-0.007,0.025
			c-0.005,0.006-0.014,0.012-0.024,0.017c-0.012,0.005-0.027,0.009-0.047,0.011s-0.043,0.004-0.072,0.004
			c-0.028,0-0.052-0.002-0.072-0.004c-0.02-0.002-0.035-0.006-0.047-0.011s-0.02-0.011-0.023-0.017
			c-0.005-0.008-0.007-0.016-0.007-0.025v-0.992c0-0.07-0.007-0.133-0.02-0.189c-0.014-0.057-0.033-0.105-0.061-0.146
			c-0.026-0.042-0.06-0.073-0.101-0.096c-0.04-0.021-0.088-0.032-0.144-0.032c-0.069,0-0.139,0.026-0.209,0.08
			s-0.146,0.132-0.229,0.234v1.142c0,0.01-0.002,0.018-0.007,0.025c-0.005,0.006-0.013,0.012-0.023,0.017s-0.026,0.009-0.046,0.011
			c-0.019,0.002-0.044,0.004-0.074,0.004c-0.029,0-0.053-0.002-0.072-0.004s-0.035-0.006-0.047-0.011
			c-0.011-0.005-0.019-0.011-0.023-0.017c-0.004-0.008-0.006-0.016-0.006-0.025V28.58c0-0.01,0.002-0.019,0.005-0.024
			c0.004-0.007,0.011-0.013,0.022-0.018c0.011-0.006,0.024-0.01,0.041-0.012c0.018-0.002,0.04-0.002,0.067-0.002
			c0.026,0,0.049,0,0.066,0.002s0.031,0.006,0.041,0.012c0.01,0.005,0.017,0.011,0.021,0.018c0.005,0.006,0.007,0.015,0.007,0.024
			v0.216c0.092-0.103,0.181-0.178,0.268-0.227c0.087-0.047,0.174-0.07,0.263-0.07c0.067,0,0.128,0.008,0.182,0.023
			c0.055,0.016,0.102,0.037,0.143,0.066c0.042,0.027,0.076,0.062,0.105,0.102c0.029,0.039,0.054,0.082,0.073,0.131
			c0.054-0.059,0.105-0.109,0.155-0.15c0.049-0.041,0.096-0.074,0.142-0.1c0.045-0.025,0.089-0.045,0.132-0.056
			c0.043-0.012,0.087-0.017,0.13-0.017c0.105,0,0.194,0.018,0.266,0.055s0.129,0.086,0.173,0.148
			c0.044,0.061,0.076,0.133,0.095,0.217c0.019,0.082,0.028,0.17,0.028,0.262V30.214z"/>
		<path fill="#999999" d="M26.731,30.125c0,0.022-0.002,0.042-0.005,0.058c-0.003,0.018-0.008,0.031-0.013,0.043
			c-0.006,0.012-0.013,0.02-0.021,0.025c-0.01,0.006-0.02,0.008-0.03,0.008h-1.298c-0.018,0-0.032-0.002-0.045-0.006
			s-0.023-0.012-0.032-0.021c-0.01-0.01-0.017-0.024-0.021-0.042s-0.006-0.041-0.006-0.066s0.001-0.047,0.002-0.064
			c0.002-0.018,0.007-0.034,0.013-0.048c0.006-0.015,0.014-0.028,0.023-0.042s0.021-0.029,0.036-0.045l0.47-0.482
			c0.108-0.111,0.195-0.211,0.261-0.299c0.065-0.089,0.116-0.17,0.151-0.242c0.036-0.072,0.06-0.139,0.07-0.197
			c0.012-0.061,0.018-0.115,0.018-0.168c0-0.052-0.009-0.102-0.026-0.147c-0.018-0.047-0.043-0.087-0.076-0.122
			s-0.074-0.063-0.124-0.084c-0.051-0.021-0.107-0.031-0.173-0.031c-0.076,0-0.145,0.01-0.205,0.031
			c-0.061,0.021-0.113,0.043-0.159,0.066c-0.046,0.025-0.084,0.047-0.114,0.068c-0.031,0.02-0.054,0.03-0.068,0.03
			c-0.009,0-0.017-0.003-0.023-0.007c-0.007-0.006-0.013-0.014-0.018-0.023c-0.004-0.012-0.007-0.025-0.01-0.045
			c-0.003-0.018-0.004-0.039-0.004-0.064c0-0.019,0.001-0.034,0.002-0.047c0.001-0.014,0.003-0.025,0.007-0.035
			c0.003-0.01,0.007-0.019,0.012-0.027c0.005-0.008,0.015-0.02,0.028-0.031c0.015-0.014,0.04-0.03,0.076-0.053
			c0.035-0.021,0.08-0.043,0.134-0.064c0.054-0.021,0.113-0.039,0.178-0.053c0.065-0.015,0.133-0.021,0.205-0.021
			c0.113,0,0.213,0.016,0.298,0.048c0.086,0.032,0.156,0.075,0.213,0.132c0.057,0.055,0.099,0.12,0.126,0.193
			c0.028,0.074,0.042,0.152,0.042,0.236c0,0.075-0.007,0.15-0.021,0.225c-0.013,0.074-0.041,0.154-0.084,0.241
			s-0.105,0.183-0.187,0.288c-0.081,0.106-0.188,0.229-0.323,0.367l-0.372,0.389h1.022c0.01,0,0.02,0.002,0.028,0.008
			c0.009,0.005,0.017,0.014,0.023,0.023c0.007,0.012,0.012,0.025,0.015,0.041C26.729,30.085,26.731,30.104,26.731,30.125z"/>
		<path fill="#999999" d="M41.237,30.125c0,0.022-0.001,0.042-0.004,0.058c-0.003,0.018-0.008,0.031-0.013,0.043
			c-0.006,0.012-0.013,0.02-0.022,0.025c-0.009,0.006-0.019,0.008-0.029,0.008H39.87c-0.017,0-0.031-0.002-0.044-0.006
			s-0.023-0.012-0.033-0.021c-0.009-0.01-0.016-0.024-0.02-0.042s-0.006-0.041-0.006-0.066s0-0.047,0.002-0.064
			s0.007-0.034,0.013-0.048c0.006-0.015,0.014-0.028,0.023-0.042c0.009-0.014,0.021-0.029,0.036-0.045l0.47-0.482
			c0.108-0.111,0.195-0.211,0.261-0.299c0.065-0.089,0.116-0.17,0.151-0.242c0.036-0.072,0.06-0.139,0.07-0.197
			c0.012-0.061,0.018-0.115,0.018-0.168c0-0.052-0.009-0.102-0.026-0.147c-0.018-0.047-0.043-0.087-0.076-0.122
			s-0.074-0.063-0.125-0.084c-0.05-0.021-0.107-0.031-0.172-0.031c-0.076,0-0.145,0.01-0.205,0.031
			c-0.061,0.021-0.113,0.043-0.159,0.066c-0.046,0.025-0.084,0.047-0.114,0.068c-0.031,0.02-0.054,0.03-0.068,0.03
			c-0.009,0-0.017-0.003-0.023-0.007c-0.007-0.006-0.013-0.014-0.018-0.023c-0.004-0.012-0.007-0.025-0.01-0.045
			c-0.003-0.018-0.004-0.039-0.004-0.064c0-0.019,0.001-0.034,0.002-0.047c0.001-0.014,0.003-0.025,0.007-0.035
			c0.003-0.01,0.007-0.019,0.012-0.027c0.005-0.008,0.014-0.02,0.028-0.031c0.015-0.014,0.04-0.03,0.075-0.053
			c0.036-0.021,0.081-0.043,0.135-0.064c0.054-0.021,0.113-0.039,0.178-0.053c0.065-0.015,0.133-0.021,0.204-0.021
			c0.114,0,0.214,0.016,0.299,0.048c0.086,0.032,0.156,0.075,0.213,0.132c0.056,0.055,0.098,0.12,0.126,0.193
			c0.028,0.074,0.042,0.152,0.042,0.236c0,0.075-0.007,0.15-0.021,0.225c-0.013,0.074-0.041,0.154-0.084,0.241
			s-0.105,0.183-0.187,0.288c-0.081,0.106-0.188,0.229-0.323,0.367l-0.372,0.389h1.022c0.01,0,0.019,0.002,0.028,0.008
			c0.009,0.005,0.017,0.014,0.023,0.023c0.007,0.012,0.012,0.025,0.015,0.041C41.236,30.085,41.237,30.104,41.237,30.125z"/>
		<path fill="#999999" d="M42.109,30.062c0,0.086-0.015,0.143-0.043,0.172c-0.028,0.028-0.08,0.043-0.155,0.043
			c-0.072,0-0.123-0.015-0.15-0.043c-0.028-0.027-0.042-0.083-0.042-0.166c0-0.086,0.015-0.144,0.043-0.172s0.08-0.043,0.155-0.043
			c0.072,0,0.123,0.014,0.15,0.042C42.096,29.923,42.109,29.978,42.109,30.062z"/>
		<path fill="#999999" d="M44.139,29.079c0,0.181-0.014,0.346-0.042,0.494s-0.076,0.277-0.142,0.384
			c-0.066,0.107-0.152,0.19-0.259,0.249s-0.238,0.088-0.395,0.088c-0.147,0-0.271-0.026-0.373-0.079
			c-0.101-0.052-0.183-0.13-0.244-0.232s-0.105-0.228-0.132-0.378c-0.025-0.148-0.039-0.32-0.039-0.514
			c0-0.18,0.015-0.344,0.044-0.494c0.029-0.148,0.076-0.277,0.142-0.385s0.151-0.189,0.258-0.248s0.237-0.088,0.393-0.088
			c0.148,0,0.273,0.025,0.375,0.078c0.101,0.053,0.182,0.131,0.244,0.232c0.062,0.103,0.105,0.229,0.131,0.378
			C44.126,28.714,44.139,28.886,44.139,29.079z M43.819,29.101c0-0.117-0.004-0.223-0.013-0.315
			c-0.008-0.093-0.021-0.175-0.037-0.247c-0.017-0.071-0.037-0.133-0.063-0.184c-0.026-0.052-0.058-0.094-0.094-0.127
			s-0.077-0.059-0.124-0.073s-0.099-0.022-0.157-0.022c-0.103,0-0.187,0.023-0.25,0.072c-0.064,0.049-0.115,0.115-0.152,0.199
			c-0.037,0.086-0.062,0.185-0.075,0.299c-0.014,0.113-0.02,0.235-0.02,0.366c0,0.176,0.009,0.325,0.027,0.448
			c0.018,0.122,0.047,0.223,0.086,0.3s0.09,0.134,0.15,0.169c0.062,0.035,0.136,0.053,0.223,0.053c0.067,0,0.127-0.012,0.179-0.033
			s0.096-0.053,0.133-0.094c0.037-0.04,0.067-0.088,0.092-0.146c0.023-0.058,0.043-0.12,0.058-0.188
			c0.015-0.069,0.024-0.145,0.03-0.225C43.816,29.272,43.819,29.188,43.819,29.101z"/>
		<path fill="#999999" d="M46.023,29.079c0,0.181-0.014,0.346-0.042,0.494c-0.029,0.148-0.076,0.277-0.142,0.384
			c-0.066,0.107-0.152,0.19-0.259,0.249s-0.238,0.088-0.395,0.088c-0.147,0-0.271-0.026-0.373-0.079
			c-0.101-0.052-0.183-0.13-0.244-0.232s-0.105-0.228-0.132-0.378c-0.025-0.148-0.039-0.32-0.039-0.514
			c0-0.18,0.015-0.344,0.044-0.494c0.029-0.148,0.076-0.277,0.142-0.385s0.151-0.189,0.258-0.248s0.237-0.088,0.393-0.088
			c0.148,0,0.273,0.025,0.374,0.078c0.102,0.053,0.183,0.131,0.245,0.232c0.062,0.103,0.105,0.229,0.131,0.378
			C46.011,28.714,46.023,28.886,46.023,29.079z M45.704,29.101c0-0.117-0.004-0.223-0.013-0.315s-0.021-0.175-0.037-0.247
			c-0.017-0.071-0.037-0.133-0.063-0.184c-0.026-0.052-0.058-0.094-0.094-0.127s-0.078-0.059-0.124-0.073
			c-0.047-0.015-0.1-0.022-0.157-0.022c-0.103,0-0.187,0.023-0.251,0.072c-0.063,0.049-0.114,0.115-0.151,0.199
			c-0.037,0.086-0.062,0.185-0.075,0.299c-0.014,0.113-0.02,0.235-0.02,0.366c0,0.176,0.009,0.325,0.026,0.448
			c0.019,0.122,0.047,0.223,0.087,0.3c0.039,0.077,0.089,0.134,0.15,0.169s0.136,0.053,0.223,0.053c0.067,0,0.127-0.012,0.179-0.033
			s0.096-0.053,0.133-0.094c0.036-0.04,0.067-0.088,0.092-0.146c0.023-0.058,0.043-0.12,0.058-0.188
			c0.015-0.069,0.024-0.145,0.03-0.225C45.701,29.272,45.704,29.188,45.704,29.101z"/>
		<path fill="#999999" d="M17.874,34.675c0,0.01-0.002,0.018-0.007,0.025c-0.005,0.006-0.014,0.012-0.025,0.017
			s-0.028,0.008-0.048,0.011c-0.021,0.004-0.045,0.005-0.075,0.005c-0.029,0-0.055-0.001-0.075-0.005
			c-0.021-0.003-0.036-0.006-0.049-0.011c-0.012-0.005-0.021-0.011-0.025-0.017c-0.005-0.008-0.007-0.016-0.007-0.025v-2.256
			c0-0.01,0.002-0.018,0.008-0.025s0.015-0.013,0.027-0.018c0.013-0.004,0.029-0.008,0.049-0.01
			c0.021-0.004,0.044-0.006,0.072-0.006c0.03,0,0.055,0.002,0.075,0.006c0.02,0.002,0.036,0.006,0.048,0.01
			c0.012,0.005,0.021,0.01,0.025,0.018s0.007,0.016,0.007,0.025V34.675z"/>
		<path fill="#999999" d="M19.314,34.556c0,0.035-0.003,0.063-0.008,0.084s-0.012,0.035-0.021,0.045s-0.024,0.02-0.044,0.027
			c-0.019,0.009-0.041,0.016-0.065,0.021c-0.025,0.006-0.052,0.01-0.079,0.014c-0.028,0.004-0.056,0.006-0.084,0.006
			c-0.085,0-0.157-0.012-0.218-0.034s-0.11-0.056-0.148-0.103c-0.039-0.045-0.067-0.102-0.085-0.172
			c-0.018-0.069-0.026-0.151-0.026-0.246v-0.955h-0.229c-0.019,0-0.033-0.01-0.044-0.029s-0.016-0.051-0.016-0.094
			c0-0.023,0.001-0.043,0.004-0.059s0.007-0.028,0.012-0.039c0.005-0.01,0.012-0.018,0.02-0.021s0.017-0.006,0.026-0.006h0.227
			v-0.389c0-0.009,0.002-0.017,0.007-0.023c0.004-0.008,0.012-0.014,0.023-0.02s0.026-0.01,0.046-0.012s0.044-0.004,0.073-0.004
			c0.03,0,0.055,0.002,0.074,0.004s0.034,0.006,0.045,0.012s0.02,0.012,0.024,0.02c0.004,0.007,0.007,0.015,0.007,0.023v0.389h0.419
			c0.01,0,0.019,0.002,0.025,0.006c0.008,0.004,0.014,0.012,0.02,0.021c0.006,0.011,0.01,0.023,0.012,0.039
			c0.003,0.016,0.004,0.035,0.004,0.059c0,0.043-0.006,0.074-0.017,0.094s-0.025,0.029-0.044,0.029h-0.419v0.912
			c0,0.112,0.017,0.197,0.05,0.255s0.093,0.086,0.179,0.086c0.028,0,0.053-0.003,0.074-0.009c0.022-0.005,0.042-0.01,0.059-0.017
			c0.017-0.006,0.031-0.012,0.044-0.017c0.012-0.006,0.022-0.009,0.032-0.009c0.006,0,0.012,0.001,0.018,0.005
			c0.005,0.003,0.01,0.008,0.013,0.018c0.003,0.008,0.006,0.02,0.008,0.033C19.313,34.517,19.314,34.534,19.314,34.556z"/>
		<path fill="#999999" d="M21.064,33.788c0,0.047-0.012,0.08-0.036,0.101c-0.023,0.021-0.05,0.03-0.081,0.03h-1.075
			c0,0.091,0.009,0.172,0.026,0.245c0.019,0.073,0.049,0.135,0.092,0.187c0.042,0.053,0.098,0.092,0.166,0.12
			s0.151,0.042,0.25,0.042c0.078,0,0.147-0.006,0.208-0.02c0.061-0.012,0.113-0.027,0.157-0.043c0.045-0.016,0.081-0.029,0.11-0.042
			c0.028-0.013,0.05-0.019,0.064-0.019c0.009,0,0.016,0.002,0.022,0.006s0.012,0.01,0.016,0.02c0.004,0.008,0.007,0.02,0.009,0.035
			c0.001,0.015,0.002,0.033,0.002,0.055c0,0.016,0,0.029-0.001,0.041c-0.002,0.012-0.003,0.021-0.005,0.031
			c-0.002,0.009-0.005,0.018-0.009,0.024c-0.005,0.007-0.01,0.015-0.017,0.021c-0.007,0.007-0.026,0.018-0.06,0.033
			c-0.032,0.016-0.074,0.029-0.127,0.045c-0.052,0.014-0.112,0.027-0.181,0.039c-0.068,0.011-0.141,0.017-0.219,0.017
			c-0.134,0-0.252-0.019-0.353-0.056c-0.102-0.038-0.187-0.094-0.256-0.168c-0.068-0.074-0.121-0.166-0.155-0.277
			c-0.035-0.111-0.053-0.241-0.053-0.389c0-0.141,0.018-0.267,0.054-0.379c0.037-0.111,0.089-0.207,0.157-0.285
			s0.151-0.138,0.248-0.18c0.097-0.041,0.205-0.063,0.325-0.063c0.128,0,0.237,0.021,0.327,0.063
			c0.091,0.041,0.165,0.096,0.223,0.166c0.059,0.069,0.101,0.15,0.128,0.244s0.041,0.194,0.041,0.301V33.788z M20.763,33.699
			c0.004-0.157-0.031-0.28-0.104-0.37c-0.074-0.09-0.184-0.135-0.328-0.135c-0.074,0-0.14,0.014-0.195,0.042
			c-0.057,0.028-0.104,0.064-0.141,0.11c-0.038,0.047-0.067,0.1-0.088,0.16c-0.021,0.063-0.032,0.125-0.034,0.192H20.763z"/>
		<path fill="#999999" d="M23.944,34.676c0,0.01-0.003,0.019-0.008,0.024c-0.005,0.007-0.013,0.013-0.023,0.018
			s-0.026,0.008-0.045,0.011c-0.02,0.003-0.044,0.004-0.073,0.004c-0.03,0-0.055-0.001-0.074-0.004s-0.035-0.006-0.046-0.011
			c-0.012-0.005-0.021-0.011-0.024-0.018c-0.005-0.006-0.008-0.015-0.008-0.024v-0.993c0-0.068-0.006-0.132-0.019-0.188
			c-0.012-0.058-0.031-0.106-0.058-0.147s-0.061-0.072-0.102-0.094s-0.09-0.033-0.146-0.033c-0.069,0-0.138,0.027-0.208,0.08
			c-0.069,0.053-0.146,0.131-0.229,0.234v1.142c0,0.01-0.002,0.019-0.007,0.024c-0.005,0.007-0.014,0.013-0.024,0.018
			c-0.012,0.005-0.027,0.008-0.047,0.011s-0.043,0.004-0.072,0.004c-0.028,0-0.052-0.001-0.072-0.004
			c-0.02-0.003-0.035-0.006-0.047-0.011s-0.02-0.011-0.023-0.018c-0.005-0.006-0.007-0.015-0.007-0.024v-0.993
			c0-0.068-0.007-0.132-0.02-0.188c-0.014-0.058-0.033-0.106-0.061-0.147c-0.026-0.041-0.06-0.072-0.101-0.094
			c-0.04-0.021-0.088-0.033-0.144-0.033c-0.069,0-0.139,0.027-0.209,0.08s-0.146,0.131-0.229,0.234v1.142
			c0,0.01-0.002,0.019-0.007,0.024c-0.005,0.007-0.013,0.013-0.023,0.018s-0.026,0.008-0.046,0.011
			c-0.019,0.003-0.044,0.004-0.074,0.004c-0.029,0-0.053-0.001-0.072-0.004s-0.035-0.006-0.047-0.011
			c-0.011-0.005-0.019-0.011-0.023-0.018c-0.004-0.006-0.006-0.015-0.006-0.024v-1.634c0-0.01,0.002-0.018,0.005-0.024
			c0.004-0.007,0.011-0.013,0.022-0.019c0.011-0.006,0.024-0.009,0.041-0.011c0.018-0.002,0.04-0.003,0.067-0.003
			c0.026,0,0.049,0.001,0.066,0.003s0.031,0.005,0.041,0.011s0.017,0.012,0.021,0.019c0.005,0.007,0.007,0.015,0.007,0.024v0.216
			c0.092-0.103,0.181-0.179,0.268-0.226c0.087-0.049,0.174-0.072,0.263-0.072c0.067,0,0.128,0.008,0.182,0.023
			c0.055,0.016,0.102,0.038,0.143,0.066c0.042,0.029,0.076,0.063,0.105,0.102s0.054,0.084,0.073,0.132
			c0.054-0.06,0.105-0.109,0.155-0.15c0.049-0.042,0.096-0.075,0.142-0.101c0.045-0.025,0.089-0.043,0.132-0.055
			s0.087-0.018,0.13-0.018c0.105,0,0.194,0.019,0.266,0.056c0.071,0.036,0.129,0.087,0.173,0.147
			c0.044,0.063,0.076,0.135,0.095,0.217c0.019,0.084,0.028,0.171,0.028,0.264V34.676z"/>
		<path fill="#999999" d="M26.713,34.05c0,0.107-0.019,0.205-0.057,0.291c-0.037,0.086-0.091,0.16-0.161,0.223
			c-0.07,0.062-0.157,0.109-0.26,0.143s-0.219,0.05-0.349,0.05c-0.079,0-0.152-0.007-0.221-0.019
			c-0.068-0.014-0.129-0.028-0.183-0.046c-0.053-0.018-0.097-0.036-0.132-0.055s-0.058-0.032-0.066-0.04
			c-0.01-0.01-0.017-0.018-0.021-0.025c-0.005-0.01-0.009-0.02-0.013-0.031c-0.003-0.012-0.006-0.027-0.008-0.045
			s-0.003-0.039-0.003-0.064c0-0.043,0.004-0.074,0.013-0.091s0.021-0.025,0.038-0.025c0.011,0,0.033,0.01,0.065,0.029
			c0.033,0.019,0.075,0.04,0.127,0.063s0.112,0.044,0.181,0.063c0.069,0.019,0.146,0.028,0.229,0.028
			c0.082,0,0.154-0.011,0.217-0.03c0.063-0.021,0.114-0.051,0.156-0.088s0.074-0.082,0.095-0.133
			c0.021-0.052,0.032-0.107,0.032-0.168c0-0.066-0.014-0.127-0.04-0.18c-0.027-0.054-0.066-0.1-0.119-0.139
			c-0.052-0.039-0.115-0.068-0.19-0.089c-0.076-0.021-0.162-0.03-0.258-0.03h-0.231c-0.01,0-0.02-0.002-0.028-0.007
			c-0.01-0.005-0.018-0.011-0.024-0.021s-0.013-0.023-0.017-0.039c-0.005-0.016-0.007-0.035-0.007-0.061
			c0-0.023,0.002-0.043,0.005-0.059c0.004-0.014,0.009-0.026,0.016-0.035c0.007-0.01,0.015-0.016,0.022-0.021
			c0.009-0.005,0.019-0.007,0.029-0.007h0.205c0.08,0,0.151-0.01,0.215-0.03c0.064-0.021,0.118-0.05,0.162-0.089
			s0.078-0.085,0.102-0.139c0.023-0.055,0.035-0.114,0.035-0.182c0-0.048-0.008-0.094-0.023-0.139
			c-0.016-0.044-0.039-0.082-0.07-0.115c-0.032-0.032-0.072-0.059-0.121-0.076c-0.049-0.02-0.105-0.029-0.17-0.029
			c-0.07,0-0.135,0.012-0.193,0.032s-0.111,0.044-0.157,0.068s-0.084,0.047-0.114,0.067c-0.03,0.021-0.051,0.032-0.063,0.032
			c-0.009,0-0.016-0.001-0.022-0.005c-0.007-0.002-0.012-0.009-0.017-0.018c-0.004-0.01-0.007-0.021-0.009-0.039
			c-0.002-0.016-0.003-0.037-0.003-0.064c0-0.018,0.001-0.033,0.002-0.047s0.004-0.026,0.007-0.037
			c0.004-0.01,0.008-0.02,0.013-0.027c0.005-0.009,0.014-0.02,0.024-0.03c0.012-0.012,0.035-0.028,0.07-0.05s0.078-0.043,0.13-0.064
			s0.11-0.039,0.178-0.054s0.14-0.022,0.217-0.022c0.109,0,0.205,0.015,0.287,0.043c0.082,0.027,0.151,0.066,0.206,0.117
			c0.056,0.051,0.097,0.111,0.124,0.183c0.026,0.071,0.04,0.149,0.04,0.235c0,0.074-0.01,0.143-0.028,0.205
			c-0.02,0.064-0.048,0.121-0.086,0.17c-0.037,0.049-0.083,0.09-0.138,0.125s-0.117,0.059-0.188,0.072v0.003
			c0.081,0.009,0.155,0.028,0.222,0.062c0.067,0.031,0.125,0.072,0.174,0.12s0.086,0.104,0.113,0.17
			C26.699,33.906,26.713,33.976,26.713,34.05z"/>
		<path fill="#999999" d="M41.22,34.05c0,0.107-0.019,0.205-0.057,0.291c-0.037,0.086-0.091,0.16-0.161,0.223
			c-0.07,0.062-0.157,0.109-0.26,0.143s-0.219,0.05-0.349,0.05c-0.079,0-0.152-0.007-0.221-0.019
			c-0.068-0.014-0.129-0.028-0.183-0.046c-0.053-0.018-0.098-0.036-0.133-0.055c-0.034-0.019-0.057-0.032-0.065-0.04
			c-0.01-0.01-0.017-0.018-0.021-0.025c-0.005-0.01-0.009-0.02-0.013-0.031c-0.003-0.012-0.006-0.027-0.008-0.045
			s-0.003-0.039-0.003-0.064c0-0.043,0.004-0.074,0.013-0.091s0.021-0.025,0.038-0.025c0.011,0,0.033,0.01,0.065,0.029
			c0.033,0.019,0.075,0.04,0.127,0.063s0.112,0.044,0.181,0.063c0.069,0.019,0.146,0.028,0.229,0.028
			c0.082,0,0.154-0.011,0.217-0.03c0.062-0.021,0.114-0.051,0.156-0.088s0.074-0.082,0.095-0.133
			c0.021-0.052,0.032-0.107,0.032-0.168c0-0.066-0.014-0.127-0.041-0.18c-0.026-0.054-0.065-0.1-0.118-0.139
			c-0.052-0.039-0.115-0.068-0.191-0.089c-0.075-0.021-0.161-0.03-0.258-0.03h-0.23c-0.01,0-0.02-0.002-0.028-0.007
			c-0.01-0.005-0.018-0.011-0.025-0.021c-0.006-0.01-0.012-0.023-0.017-0.039c-0.004-0.016-0.006-0.035-0.006-0.061
			c0-0.023,0.001-0.043,0.005-0.059c0.004-0.014,0.009-0.026,0.016-0.035c0.007-0.01,0.015-0.016,0.022-0.021
			c0.009-0.005,0.019-0.007,0.029-0.007h0.205c0.08,0,0.151-0.01,0.215-0.03s0.118-0.05,0.162-0.089s0.078-0.085,0.102-0.139
			c0.023-0.055,0.035-0.114,0.035-0.182c0-0.048-0.008-0.094-0.023-0.139c-0.016-0.044-0.039-0.082-0.07-0.115
			c-0.032-0.032-0.072-0.059-0.121-0.076c-0.049-0.02-0.105-0.029-0.17-0.029c-0.07,0-0.135,0.012-0.193,0.032
			s-0.111,0.044-0.157,0.068s-0.084,0.047-0.114,0.067c-0.03,0.021-0.052,0.032-0.063,0.032c-0.009,0-0.016-0.001-0.022-0.005
			c-0.007-0.002-0.013-0.009-0.017-0.018c-0.004-0.01-0.007-0.021-0.009-0.039c-0.002-0.016-0.003-0.037-0.003-0.064
			c0-0.018,0.001-0.033,0.002-0.047s0.004-0.026,0.007-0.037c0.004-0.01,0.008-0.02,0.013-0.027c0.005-0.009,0.014-0.02,0.024-0.03
			c0.012-0.012,0.035-0.028,0.07-0.05s0.078-0.043,0.13-0.064s0.11-0.039,0.178-0.054s0.14-0.022,0.217-0.022
			c0.109,0,0.205,0.015,0.287,0.043c0.082,0.027,0.151,0.066,0.206,0.117s0.097,0.111,0.123,0.183
			c0.027,0.071,0.041,0.149,0.041,0.235c0,0.074-0.01,0.143-0.028,0.205c-0.02,0.064-0.048,0.121-0.086,0.17
			c-0.037,0.049-0.083,0.09-0.138,0.125s-0.117,0.059-0.188,0.072v0.003c0.081,0.009,0.154,0.028,0.222,0.062
			c0.067,0.031,0.125,0.072,0.174,0.12c0.048,0.048,0.086,0.104,0.113,0.17C41.206,33.906,41.22,33.976,41.22,34.05z"/>
		<path fill="#999999" d="M42.109,34.523c0,0.086-0.015,0.144-0.043,0.171c-0.028,0.029-0.08,0.043-0.155,0.043
			c-0.072,0-0.123-0.014-0.15-0.041c-0.028-0.028-0.042-0.084-0.042-0.168c0-0.086,0.015-0.143,0.043-0.171s0.08-0.043,0.155-0.043
			c0.072,0,0.123,0.015,0.15,0.042C42.096,34.384,42.109,34.44,42.109,34.523z"/>
		<path fill="#999999" d="M44.139,33.541c0,0.181-0.014,0.345-0.042,0.494s-0.076,0.276-0.142,0.384
			c-0.066,0.107-0.152,0.189-0.259,0.249c-0.106,0.059-0.238,0.088-0.395,0.088c-0.147,0-0.271-0.026-0.373-0.079
			c-0.101-0.053-0.183-0.13-0.244-0.232c-0.062-0.102-0.105-0.229-0.132-0.377c-0.025-0.15-0.039-0.322-0.039-0.516
			c0-0.179,0.015-0.344,0.044-0.492c0.029-0.15,0.076-0.278,0.142-0.385c0.065-0.107,0.151-0.19,0.258-0.25
			c0.106-0.059,0.237-0.088,0.393-0.088c0.148,0,0.273,0.027,0.375,0.08c0.101,0.053,0.182,0.129,0.244,0.232
			c0.062,0.102,0.105,0.228,0.131,0.377C44.126,33.176,44.139,33.348,44.139,33.541z M43.819,33.563
			c0-0.117-0.004-0.223-0.013-0.316c-0.008-0.094-0.021-0.176-0.037-0.247s-0.037-0.133-0.063-0.185
			c-0.026-0.051-0.058-0.094-0.094-0.127s-0.077-0.057-0.124-0.072s-0.099-0.023-0.157-0.023c-0.103,0-0.187,0.025-0.25,0.073
			c-0.064,0.048-0.115,0.115-0.152,0.2c-0.037,0.084-0.062,0.184-0.075,0.297c-0.014,0.114-0.02,0.236-0.02,0.367
			c0,0.176,0.009,0.324,0.027,0.447c0.018,0.123,0.047,0.223,0.086,0.301s0.09,0.134,0.15,0.169
			c0.062,0.035,0.136,0.053,0.223,0.053c0.067,0,0.127-0.011,0.179-0.032c0.052-0.022,0.096-0.054,0.133-0.094
			c0.037-0.041,0.067-0.09,0.092-0.146c0.023-0.057,0.043-0.119,0.058-0.189c0.015-0.068,0.024-0.143,0.03-0.224
			C43.816,33.733,43.819,33.649,43.819,33.563z"/>
		<path fill="#999999" d="M46.023,33.541c0,0.181-0.014,0.345-0.042,0.494c-0.029,0.149-0.076,0.276-0.142,0.384
			c-0.066,0.107-0.152,0.189-0.259,0.249c-0.106,0.059-0.238,0.088-0.395,0.088c-0.147,0-0.271-0.026-0.373-0.079
			c-0.101-0.053-0.183-0.13-0.244-0.232c-0.062-0.102-0.105-0.229-0.132-0.377c-0.025-0.15-0.039-0.322-0.039-0.516
			c0-0.179,0.015-0.344,0.044-0.492c0.029-0.15,0.076-0.278,0.142-0.385c0.065-0.107,0.151-0.19,0.258-0.25
			c0.106-0.059,0.237-0.088,0.393-0.088c0.148,0,0.273,0.027,0.374,0.08c0.102,0.053,0.183,0.129,0.245,0.232
			c0.062,0.102,0.105,0.228,0.131,0.377C46.011,33.176,46.023,33.348,46.023,33.541z M45.704,33.563
			c0-0.117-0.004-0.223-0.013-0.316S45.671,33.071,45.654,33s-0.037-0.133-0.063-0.185c-0.026-0.051-0.058-0.094-0.094-0.127
			s-0.078-0.057-0.124-0.072c-0.047-0.016-0.1-0.023-0.157-0.023c-0.103,0-0.187,0.025-0.251,0.073
			c-0.063,0.048-0.114,0.115-0.151,0.2c-0.037,0.084-0.062,0.184-0.075,0.297c-0.014,0.114-0.02,0.236-0.02,0.367
			c0,0.176,0.009,0.324,0.026,0.447c0.019,0.123,0.047,0.223,0.087,0.301c0.039,0.078,0.089,0.134,0.15,0.169
			s0.136,0.053,0.223,0.053c0.067,0,0.127-0.011,0.179-0.032c0.052-0.022,0.096-0.054,0.133-0.094
			c0.036-0.041,0.067-0.09,0.092-0.146c0.023-0.057,0.043-0.119,0.058-0.189c0.015-0.068,0.024-0.143,0.03-0.224
			C45.701,33.733,45.704,33.649,45.704,33.563z"/>
		<path fill="#999999" d="M18.263,38.267c0,0.047-0.005,0.08-0.016,0.098c-0.012,0.019-0.027,0.027-0.048,0.027H17.44
			c-0.021,0-0.038-0.01-0.049-0.027c-0.011-0.02-0.017-0.052-0.017-0.098s0.006-0.078,0.017-0.096
			c0.011-0.019,0.027-0.027,0.049-0.027h0.759c0.01,0,0.019,0.002,0.026,0.005c0.008,0.004,0.015,0.011,0.021,0.021
			c0.005,0.011,0.01,0.023,0.013,0.039S18.263,38.243,18.263,38.267z"/>
		<path fill="#999999" d="M19.401,38.267c0,0.047-0.006,0.08-0.017,0.098c-0.011,0.019-0.026,0.027-0.047,0.027h-0.759
			c-0.022,0-0.038-0.01-0.049-0.027c-0.012-0.02-0.017-0.052-0.017-0.098s0.005-0.078,0.017-0.096
			c0.011-0.019,0.026-0.027,0.049-0.027h0.759c0.01,0,0.019,0.002,0.026,0.005c0.008,0.004,0.015,0.011,0.02,0.021
			c0.006,0.011,0.01,0.023,0.013,0.039S19.401,38.243,19.401,38.267z"/>
		<path fill="#999999" d="M20.54,38.267c0,0.047-0.006,0.08-0.017,0.098c-0.011,0.019-0.026,0.027-0.047,0.027h-0.759
			c-0.022,0-0.039-0.01-0.05-0.027c-0.011-0.02-0.016-0.052-0.016-0.098s0.005-0.078,0.016-0.096
			c0.011-0.019,0.027-0.027,0.05-0.027h0.759c0.01,0,0.019,0.002,0.026,0.005c0.008,0.004,0.014,0.011,0.02,0.021
			c0.006,0.011,0.01,0.023,0.013,0.039S20.54,38.243,20.54,38.267z"/>
		<path fill="#999999" d="M21.678,38.267c0,0.047-0.005,0.08-0.016,0.098c-0.011,0.019-0.027,0.027-0.048,0.027h-0.759
			c-0.021,0-0.038-0.01-0.049-0.027c-0.011-0.02-0.017-0.052-0.017-0.098s0.006-0.078,0.017-0.096
			c0.011-0.019,0.027-0.027,0.049-0.027h0.759c0.01,0,0.019,0.002,0.026,0.005c0.008,0.004,0.015,0.011,0.021,0.021
			c0.005,0.011,0.01,0.023,0.013,0.039S21.678,38.243,21.678,38.267z"/>
		<path fill="#999999" d="M22.816,38.267c0,0.047-0.005,0.08-0.017,0.098c-0.011,0.019-0.026,0.027-0.047,0.027h-0.759
			c-0.021,0-0.038-0.01-0.049-0.027c-0.011-0.02-0.017-0.052-0.017-0.098s0.006-0.078,0.017-0.096
			c0.011-0.019,0.027-0.027,0.049-0.027h0.759c0.01,0,0.019,0.002,0.026,0.005c0.008,0.004,0.015,0.011,0.02,0.021
			c0.006,0.011,0.01,0.023,0.013,0.039C22.815,38.224,22.816,38.243,22.816,38.267z"/>
		<path fill="#999999" d="M23.955,38.267c0,0.047-0.006,0.08-0.017,0.098c-0.011,0.019-0.026,0.027-0.047,0.027h-0.759
			c-0.022,0-0.038-0.01-0.05-0.027c-0.011-0.02-0.016-0.052-0.016-0.098s0.005-0.078,0.016-0.096
			c0.012-0.019,0.027-0.027,0.05-0.027h0.759c0.01,0,0.019,0.002,0.026,0.005c0.008,0.004,0.015,0.011,0.02,0.021
			c0.006,0.011,0.01,0.023,0.013,0.039S23.955,38.243,23.955,38.267z"/>
		<path fill="#999999" d="M25.094,38.267c0,0.047-0.006,0.08-0.017,0.098c-0.011,0.019-0.026,0.027-0.048,0.027h-0.759
			c-0.021,0-0.038-0.01-0.049-0.027c-0.011-0.02-0.017-0.052-0.017-0.098s0.006-0.078,0.017-0.096
			c0.011-0.019,0.027-0.027,0.049-0.027h0.759c0.01,0,0.019,0.002,0.026,0.005c0.009,0.004,0.015,0.011,0.021,0.021
			c0.005,0.011,0.01,0.023,0.013,0.039S25.094,38.243,25.094,38.267z"/>
		<path fill="#999999" d="M26.231,38.267c0,0.047-0.005,0.08-0.016,0.098c-0.012,0.019-0.027,0.027-0.048,0.027h-0.759
			c-0.021,0-0.038-0.01-0.049-0.027c-0.011-0.02-0.017-0.052-0.017-0.098s0.006-0.078,0.017-0.096
			c0.011-0.019,0.027-0.027,0.049-0.027h0.759c0.01,0,0.019,0.002,0.026,0.005c0.008,0.004,0.015,0.011,0.021,0.021
			c0.005,0.011,0.01,0.023,0.013,0.039S26.231,38.243,26.231,38.267z"/>
		<path fill="#999999" d="M27.37,38.267c0,0.047-0.006,0.08-0.017,0.098c-0.011,0.019-0.026,0.027-0.047,0.027h-0.759
			c-0.022,0-0.038-0.01-0.049-0.027c-0.012-0.02-0.017-0.052-0.017-0.098s0.005-0.078,0.017-0.096
			c0.011-0.019,0.026-0.027,0.049-0.027h0.759c0.01,0,0.019,0.002,0.026,0.005c0.008,0.004,0.015,0.011,0.02,0.021
			c0.006,0.011,0.01,0.023,0.013,0.039S27.37,38.243,27.37,38.267z"/>
		<path fill="#999999" d="M28.509,38.267c0,0.047-0.006,0.08-0.017,0.098c-0.011,0.019-0.026,0.027-0.047,0.027h-0.76
			c-0.021,0-0.038-0.01-0.049-0.027c-0.011-0.02-0.016-0.052-0.016-0.098s0.005-0.078,0.016-0.096
			c0.011-0.019,0.027-0.027,0.049-0.027h0.76c0.01,0,0.019,0.002,0.026,0.005c0.008,0.004,0.014,0.011,0.02,0.021
			c0.006,0.011,0.01,0.023,0.013,0.039S28.509,38.243,28.509,38.267z"/>
		<path fill="#999999" d="M29.646,38.267c0,0.047-0.005,0.08-0.016,0.098c-0.011,0.019-0.027,0.027-0.048,0.027h-0.759
			c-0.021,0-0.038-0.01-0.049-0.027c-0.011-0.02-0.017-0.052-0.017-0.098s0.006-0.078,0.017-0.096
			c0.011-0.019,0.027-0.027,0.049-0.027h0.759c0.01,0,0.019,0.002,0.026,0.005c0.008,0.004,0.015,0.011,0.021,0.021
			c0.005,0.011,0.01,0.023,0.013,0.039S29.646,38.243,29.646,38.267z"/>
		<path fill="#999999" d="M30.785,38.267c0,0.047-0.005,0.08-0.017,0.098c-0.011,0.019-0.026,0.027-0.047,0.027h-0.759
			c-0.021,0-0.038-0.01-0.049-0.027c-0.011-0.02-0.017-0.052-0.017-0.098s0.006-0.078,0.017-0.096
			c0.011-0.019,0.027-0.027,0.049-0.027h0.759c0.01,0,0.019,0.002,0.026,0.005c0.008,0.004,0.015,0.011,0.02,0.021
			c0.006,0.011,0.01,0.023,0.013,0.039C30.784,38.224,30.785,38.243,30.785,38.267z"/>
		<path fill="#999999" d="M31.924,38.267c0,0.047-0.006,0.08-0.017,0.098c-0.011,0.019-0.026,0.027-0.047,0.027h-0.759
			c-0.022,0-0.038-0.01-0.05-0.027c-0.011-0.02-0.016-0.052-0.016-0.098s0.005-0.078,0.016-0.096
			c0.012-0.019,0.027-0.027,0.05-0.027h0.759c0.01,0,0.019,0.002,0.026,0.005c0.008,0.004,0.015,0.011,0.02,0.021
			c0.006,0.011,0.01,0.023,0.013,0.039S31.924,38.243,31.924,38.267z"/>
		<path fill="#999999" d="M33.063,38.267c0,0.047-0.006,0.08-0.017,0.098c-0.011,0.019-0.026,0.027-0.048,0.027h-0.759
			c-0.021,0-0.038-0.01-0.049-0.027c-0.011-0.02-0.017-0.052-0.017-0.098s0.006-0.078,0.017-0.096
			c0.011-0.019,0.027-0.027,0.049-0.027h0.759c0.01,0,0.019,0.002,0.026,0.005c0.008,0.004,0.015,0.011,0.021,0.021
			c0.005,0.011,0.01,0.023,0.013,0.039S33.063,38.243,33.063,38.267z"/>
		<path fill="#999999" d="M34.2,38.267c0,0.047-0.005,0.08-0.016,0.098c-0.012,0.019-0.027,0.027-0.048,0.027h-0.759
			c-0.021,0-0.038-0.01-0.049-0.027c-0.011-0.02-0.017-0.052-0.017-0.098s0.006-0.078,0.017-0.096
			c0.011-0.019,0.027-0.027,0.049-0.027h0.759c0.01,0,0.019,0.002,0.026,0.005c0.008,0.004,0.015,0.011,0.021,0.021
			c0.005,0.011,0.009,0.023,0.013,0.039C34.199,38.224,34.2,38.243,34.2,38.267z"/>
		<path fill="#999999" d="M35.339,38.267c0,0.047-0.006,0.08-0.017,0.098c-0.011,0.019-0.026,0.027-0.047,0.027h-0.759
			c-0.022,0-0.038-0.01-0.049-0.027c-0.012-0.02-0.017-0.052-0.017-0.098s0.005-0.078,0.017-0.096
			c0.011-0.019,0.026-0.027,0.049-0.027h0.759c0.01,0,0.019,0.002,0.026,0.005c0.008,0.004,0.015,0.011,0.02,0.021
			c0.006,0.011,0.01,0.023,0.013,0.039S35.339,38.243,35.339,38.267z"/>
		<path fill="#999999" d="M36.478,38.267c0,0.047-0.006,0.08-0.017,0.098c-0.011,0.019-0.026,0.027-0.047,0.027h-0.76
			c-0.021,0-0.038-0.01-0.049-0.027c-0.011-0.02-0.016-0.052-0.016-0.098s0.005-0.078,0.016-0.096
			c0.011-0.019,0.027-0.027,0.049-0.027h0.76c0.01,0,0.018,0.002,0.026,0.005c0.008,0.004,0.014,0.011,0.02,0.021
			c0.006,0.011,0.01,0.023,0.013,0.039S36.478,38.243,36.478,38.267z"/>
		<path fill="#999999" d="M37.615,38.267c0,0.047-0.005,0.08-0.016,0.098c-0.012,0.019-0.027,0.027-0.048,0.027h-0.759
			c-0.021,0-0.038-0.01-0.049-0.027c-0.011-0.02-0.017-0.052-0.017-0.098s0.006-0.078,0.017-0.096
			c0.011-0.019,0.027-0.027,0.049-0.027h0.759c0.01,0,0.019,0.002,0.026,0.005c0.008,0.004,0.015,0.011,0.021,0.021
			c0.005,0.011,0.01,0.023,0.013,0.039S37.615,38.243,37.615,38.267z"/>
		<path fill="#999999" d="M38.754,38.267c0,0.047-0.005,0.08-0.017,0.098c-0.011,0.019-0.026,0.027-0.047,0.027h-0.759
			c-0.021,0-0.038-0.01-0.049-0.027c-0.011-0.02-0.017-0.052-0.017-0.098s0.006-0.078,0.017-0.096
			c0.011-0.019,0.027-0.027,0.049-0.027h0.759c0.01,0,0.019,0.002,0.026,0.005c0.008,0.004,0.015,0.011,0.02,0.021
			c0.006,0.011,0.01,0.023,0.013,0.039C38.753,38.224,38.754,38.243,38.754,38.267z"/>
		<path fill="#999999" d="M39.893,38.267c0,0.047-0.006,0.08-0.017,0.098c-0.011,0.019-0.026,0.027-0.047,0.027H39.07
			c-0.022,0-0.038-0.01-0.05-0.027c-0.011-0.02-0.016-0.052-0.016-0.098s0.005-0.078,0.016-0.096
			c0.012-0.019,0.027-0.027,0.05-0.027h0.759c0.01,0,0.019,0.002,0.026,0.005c0.008,0.004,0.015,0.011,0.02,0.021
			c0.006,0.011,0.01,0.023,0.013,0.039S39.893,38.243,39.893,38.267z"/>
		<path fill="#999999" d="M41.031,38.267c0,0.047-0.006,0.08-0.017,0.098c-0.011,0.019-0.026,0.027-0.048,0.027h-0.759
			c-0.021,0-0.038-0.01-0.049-0.027c-0.011-0.02-0.017-0.052-0.017-0.098s0.006-0.078,0.017-0.096
			c0.011-0.019,0.027-0.027,0.049-0.027h0.759c0.01,0,0.019,0.002,0.026,0.005c0.008,0.004,0.015,0.011,0.021,0.021
			c0.005,0.011,0.01,0.023,0.013,0.039S41.031,38.243,41.031,38.267z"/>
		<path fill="#999999" d="M42.169,38.267c0,0.047-0.005,0.08-0.017,0.098c-0.011,0.019-0.026,0.027-0.047,0.027h-0.759
			c-0.021,0-0.038-0.01-0.049-0.027c-0.011-0.02-0.017-0.052-0.017-0.098s0.006-0.078,0.017-0.096
			c0.011-0.019,0.027-0.027,0.049-0.027h0.759c0.01,0,0.019,0.002,0.026,0.005c0.008,0.004,0.015,0.011,0.021,0.021
			c0.005,0.011,0.009,0.023,0.013,0.039C42.168,38.224,42.169,38.243,42.169,38.267z"/>
		<path fill="#999999" d="M43.308,38.267c0,0.047-0.006,0.08-0.017,0.098c-0.011,0.019-0.026,0.027-0.047,0.027h-0.759
			c-0.022,0-0.038-0.01-0.049-0.027c-0.012-0.02-0.017-0.052-0.017-0.098s0.005-0.078,0.017-0.096
			c0.011-0.019,0.026-0.027,0.049-0.027h0.759c0.01,0,0.019,0.002,0.026,0.005c0.008,0.004,0.015,0.011,0.02,0.021
			c0.006,0.011,0.01,0.023,0.013,0.039S43.308,38.243,43.308,38.267z"/>
		<path fill="#999999" d="M44.446,38.267c0,0.047-0.006,0.08-0.017,0.098c-0.011,0.019-0.026,0.027-0.047,0.027h-0.76
			c-0.021,0-0.038-0.01-0.049-0.027c-0.011-0.02-0.017-0.052-0.017-0.098s0.006-0.078,0.017-0.096
			c0.011-0.019,0.027-0.027,0.049-0.027h0.76c0.009,0,0.018,0.002,0.026,0.005c0.008,0.004,0.014,0.011,0.02,0.021
			c0.006,0.011,0.01,0.023,0.013,0.039S44.446,38.243,44.446,38.267z"/>
		<path fill="#999999" d="M45.584,38.267c0,0.047-0.005,0.08-0.016,0.098c-0.012,0.019-0.027,0.027-0.048,0.027h-0.759
			c-0.021,0-0.038-0.01-0.049-0.027c-0.011-0.02-0.017-0.052-0.017-0.098s0.006-0.078,0.017-0.096
			c0.011-0.019,0.027-0.027,0.049-0.027h0.759c0.01,0,0.019,0.002,0.026,0.005c0.008,0.004,0.015,0.011,0.021,0.021
			c0.005,0.011,0.01,0.023,0.013,0.039S45.584,38.243,45.584,38.267z"/>
		<path fill="#999999" d="M46.723,38.267c0,0.047-0.006,0.08-0.017,0.098c-0.011,0.019-0.026,0.027-0.047,0.027H45.9
			c-0.021,0-0.038-0.01-0.049-0.027c-0.012-0.02-0.017-0.052-0.017-0.098s0.005-0.078,0.017-0.096
			c0.011-0.019,0.027-0.027,0.049-0.027h0.759c0.01,0,0.019,0.002,0.026,0.005c0.008,0.004,0.015,0.011,0.02,0.021
			c0.006,0.011,0.01,0.023,0.013,0.039C46.722,38.224,46.723,38.243,46.723,38.267z"/>
		<path fill="#999999" d="M19.034,41.431c0,0.023-0.001,0.043-0.003,0.061c-0.003,0.016-0.007,0.029-0.012,0.04
			c-0.006,0.011-0.013,0.019-0.021,0.022c-0.008,0.006-0.017,0.008-0.026,0.008h-0.661v2.037c0,0.01-0.002,0.018-0.007,0.025
			s-0.014,0.013-0.025,0.018c-0.012,0.004-0.028,0.008-0.048,0.01c-0.021,0.004-0.045,0.006-0.075,0.006
			c-0.029,0-0.055-0.002-0.075-0.006c-0.021-0.002-0.036-0.006-0.049-0.01c-0.012-0.005-0.021-0.01-0.025-0.018S18,43.608,18,43.599
			v-2.037h-0.661c-0.01,0-0.019-0.002-0.026-0.008c-0.008-0.004-0.015-0.012-0.02-0.022c-0.004-0.011-0.008-0.024-0.012-0.04
			c-0.003-0.018-0.004-0.037-0.004-0.061s0.001-0.043,0.004-0.061c0.004-0.018,0.008-0.032,0.012-0.043
			c0.005-0.011,0.012-0.02,0.02-0.023c0.008-0.005,0.017-0.008,0.026-0.008h1.634c0.01,0,0.019,0.003,0.026,0.008
			c0.008,0.004,0.015,0.013,0.021,0.023c0.005,0.011,0.009,0.025,0.012,0.043C19.033,41.388,19.034,41.407,19.034,41.431z"/>
		<path fill="#999999" d="M20.529,42.765c0,0.134-0.018,0.256-0.053,0.368s-0.088,0.208-0.157,0.29
			c-0.069,0.08-0.157,0.145-0.262,0.189s-0.226,0.068-0.364,0.068c-0.134,0-0.251-0.021-0.351-0.061
			c-0.101-0.039-0.184-0.098-0.25-0.174s-0.116-0.17-0.149-0.278c-0.032-0.108-0.049-0.231-0.049-0.37
			c0-0.133,0.018-0.256,0.052-0.367c0.035-0.112,0.087-0.209,0.156-0.29s0.156-0.144,0.261-0.188s0.226-0.068,0.365-0.068
			c0.134,0,0.251,0.021,0.351,0.061c0.101,0.04,0.184,0.098,0.25,0.174s0.116,0.17,0.149,0.278
			C20.513,42.505,20.529,42.628,20.529,42.765z M20.219,42.785c0-0.089-0.009-0.172-0.025-0.251
			c-0.017-0.078-0.043-0.147-0.081-0.207c-0.038-0.059-0.09-0.105-0.154-0.141c-0.064-0.034-0.146-0.051-0.241-0.051
			c-0.09,0-0.166,0.016-0.23,0.047s-0.117,0.076-0.158,0.133c-0.042,0.058-0.072,0.126-0.093,0.205
			c-0.021,0.078-0.03,0.164-0.03,0.258c0,0.089,0.009,0.174,0.025,0.252c0.016,0.078,0.044,0.147,0.082,0.206s0.09,0.104,0.155,0.14
			c0.064,0.035,0.145,0.052,0.241,0.052c0.088,0,0.164-0.016,0.229-0.048c0.064-0.031,0.117-0.074,0.159-0.132
			c0.041-0.058,0.071-0.124,0.092-0.203C20.209,42.966,20.219,42.88,20.219,42.785z"/>
		<path fill="#999999" d="M21.819,43.48c0,0.035-0.002,0.063-0.007,0.083c-0.005,0.021-0.012,0.036-0.021,0.046
			s-0.024,0.019-0.044,0.027s-0.041,0.015-0.066,0.021c-0.024,0.006-0.051,0.01-0.079,0.014c-0.027,0.004-0.056,0.006-0.083,0.006
			c-0.085,0-0.157-0.012-0.218-0.033c-0.061-0.023-0.11-0.057-0.149-0.102c-0.038-0.046-0.066-0.104-0.084-0.174
			c-0.018-0.068-0.026-0.15-0.026-0.246v-0.954h-0.229c-0.019,0-0.033-0.01-0.044-0.029s-0.017-0.051-0.017-0.095
			c0-0.022,0.002-0.042,0.005-0.058c0.003-0.017,0.007-0.028,0.012-0.039s0.011-0.018,0.019-0.022
			c0.009-0.004,0.018-0.006,0.026-0.006h0.228V41.53c0-0.008,0.002-0.016,0.006-0.023c0.005-0.008,0.013-0.014,0.024-0.02
			c0.011-0.005,0.026-0.009,0.046-0.012c0.02-0.002,0.044-0.004,0.072-0.004c0.03,0,0.056,0.002,0.075,0.004
			c0.019,0.003,0.034,0.007,0.045,0.012c0.011,0.006,0.019,0.012,0.023,0.02s0.008,0.016,0.008,0.023v0.389h0.419
			c0.01,0,0.019,0.002,0.025,0.006c0.008,0.005,0.014,0.012,0.02,0.022c0.005,0.011,0.009,0.022,0.012,0.039
			c0.002,0.016,0.003,0.035,0.003,0.058c0,0.044-0.005,0.075-0.016,0.095s-0.025,0.029-0.044,0.029h-0.419v0.911
			c0,0.113,0.017,0.197,0.05,0.256c0.033,0.057,0.093,0.086,0.179,0.086c0.027,0,0.053-0.003,0.074-0.008
			c0.021-0.006,0.041-0.012,0.059-0.018c0.017-0.006,0.031-0.012,0.043-0.018c0.013-0.006,0.023-0.008,0.033-0.008
			c0.006,0,0.012,0.001,0.017,0.004c0.006,0.004,0.01,0.009,0.013,0.018c0.003,0.008,0.006,0.02,0.009,0.034
			C21.818,43.44,21.819,43.458,21.819,43.48z"/>
		<path fill="#999999" d="M23.401,43.603c0,0.014-0.005,0.025-0.015,0.032s-0.023,0.013-0.04,0.017s-0.042,0.006-0.074,0.006
			c-0.031,0-0.057-0.002-0.075-0.006c-0.02-0.004-0.033-0.01-0.041-0.017c-0.009-0.007-0.013-0.019-0.013-0.032v-0.164
			c-0.071,0.076-0.151,0.136-0.239,0.178c-0.088,0.043-0.181,0.064-0.278,0.064c-0.086,0-0.164-0.012-0.233-0.034
			s-0.129-0.055-0.178-0.097c-0.049-0.043-0.087-0.095-0.114-0.156c-0.027-0.063-0.041-0.133-0.041-0.211
			c0-0.092,0.019-0.172,0.056-0.24c0.038-0.066,0.092-0.123,0.162-0.168s0.156-0.078,0.258-0.102
			c0.102-0.021,0.216-0.033,0.343-0.033h0.226v-0.127c0-0.063-0.007-0.119-0.021-0.167c-0.013-0.048-0.034-0.089-0.064-0.12
			c-0.029-0.033-0.067-0.057-0.115-0.073c-0.047-0.017-0.104-0.024-0.174-0.024c-0.074,0-0.141,0.009-0.199,0.026
			s-0.109,0.036-0.154,0.058c-0.044,0.021-0.081,0.041-0.11,0.059s-0.052,0.026-0.066,0.026c-0.01,0-0.019-0.003-0.025-0.007
			c-0.007-0.006-0.014-0.013-0.02-0.022c-0.005-0.01-0.009-0.022-0.012-0.037c-0.002-0.015-0.003-0.032-0.003-0.05
			c0-0.03,0.002-0.055,0.006-0.072c0.005-0.018,0.015-0.033,0.031-0.049c0.017-0.017,0.044-0.035,0.084-0.057
			c0.04-0.021,0.086-0.04,0.139-0.058c0.052-0.018,0.108-0.032,0.17-0.044c0.063-0.012,0.124-0.018,0.188-0.018
			c0.117,0,0.217,0.014,0.3,0.041c0.082,0.026,0.148,0.065,0.199,0.117c0.051,0.051,0.088,0.115,0.11,0.191
			c0.023,0.076,0.035,0.165,0.035,0.267V43.603z M23.104,42.856h-0.256c-0.083,0-0.154,0.006-0.215,0.021
			c-0.061,0.014-0.11,0.034-0.15,0.062s-0.069,0.061-0.088,0.098c-0.019,0.039-0.028,0.082-0.028,0.132
			c0,0.085,0.027,0.152,0.081,0.202c0.054,0.051,0.129,0.076,0.226,0.076c0.079,0,0.152-0.021,0.219-0.061
			c0.067-0.039,0.138-0.101,0.212-0.184V42.856z"/>
		<path fill="#999999" d="M24.251,43.601c0,0.01-0.003,0.018-0.008,0.024c-0.004,0.007-0.013,0.013-0.023,0.017
			c-0.011,0.006-0.025,0.009-0.045,0.012c-0.02,0.002-0.044,0.004-0.074,0.004c-0.029,0-0.054-0.002-0.073-0.004
			c-0.02-0.003-0.034-0.006-0.046-0.012c-0.012-0.004-0.02-0.01-0.023-0.017c-0.005-0.007-0.007-0.015-0.007-0.024v-2.426
			c0-0.01,0.002-0.018,0.007-0.025c0.004-0.008,0.012-0.014,0.023-0.019s0.026-0.009,0.046-0.011s0.044-0.004,0.073-0.004
			c0.03,0,0.055,0.002,0.074,0.004s0.034,0.006,0.045,0.011s0.02,0.011,0.023,0.019c0.005,0.008,0.008,0.016,0.008,0.025V43.601z"/>
		<path fill="#999999" d="M41.298,42.885c0,0.103-0.016,0.202-0.048,0.299c-0.031,0.097-0.079,0.181-0.145,0.255
			c-0.065,0.072-0.148,0.131-0.249,0.176c-0.101,0.044-0.219,0.066-0.355,0.066c-0.099,0-0.185-0.013-0.26-0.037
			c-0.075-0.023-0.141-0.059-0.196-0.104s-0.102-0.1-0.139-0.165s-0.066-0.14-0.089-0.224c-0.022-0.083-0.039-0.174-0.049-0.273
			s-0.014-0.206-0.014-0.32c0-0.1,0.005-0.201,0.016-0.305c0.011-0.103,0.03-0.202,0.059-0.297c0.027-0.096,0.065-0.186,0.113-0.271
			c0.048-0.084,0.107-0.157,0.18-0.22s0.158-0.111,0.259-0.148c0.101-0.035,0.217-0.054,0.351-0.054c0.045,0,0.09,0.003,0.136,0.009
			c0.046,0.005,0.089,0.012,0.127,0.021c0.039,0.009,0.071,0.019,0.099,0.029c0.026,0.012,0.044,0.02,0.053,0.027
			c0.008,0.006,0.015,0.014,0.019,0.021s0.008,0.016,0.01,0.025c0.003,0.009,0.005,0.02,0.006,0.03
			c0.001,0.012,0.002,0.026,0.002,0.043c0,0.021,0,0.04-0.001,0.056s-0.003,0.029-0.008,0.039c-0.004,0.01-0.009,0.017-0.016,0.021
			s-0.016,0.008-0.026,0.008c-0.014,0-0.031-0.005-0.055-0.014c-0.023-0.008-0.051-0.018-0.084-0.027
			c-0.032-0.011-0.072-0.02-0.118-0.029c-0.047-0.008-0.101-0.012-0.163-0.012c-0.112,0-0.209,0.022-0.29,0.068
			c-0.081,0.047-0.147,0.107-0.199,0.186c-0.051,0.078-0.089,0.168-0.114,0.27c-0.024,0.102-0.039,0.209-0.043,0.32
			c0.032-0.018,0.067-0.036,0.106-0.055c0.039-0.018,0.082-0.034,0.129-0.049c0.047-0.014,0.096-0.026,0.148-0.035
			c0.052-0.01,0.107-0.014,0.167-0.014c0.127,0,0.234,0.018,0.321,0.052s0.157,0.083,0.211,0.144
			c0.055,0.061,0.093,0.133,0.115,0.216C41.286,42.698,41.298,42.788,41.298,42.885z M40.981,42.914c0-0.07-0.007-0.134-0.021-0.192
			c-0.014-0.057-0.037-0.105-0.07-0.146c-0.032-0.04-0.076-0.071-0.131-0.093c-0.054-0.021-0.121-0.032-0.201-0.032
			c-0.045,0-0.09,0.004-0.134,0.012c-0.045,0.008-0.089,0.019-0.13,0.032c-0.042,0.014-0.082,0.031-0.12,0.049
			c-0.038,0.02-0.073,0.039-0.104,0.062c0,0.155,0.01,0.286,0.03,0.392c0.02,0.105,0.049,0.189,0.087,0.254
			c0.038,0.063,0.086,0.109,0.143,0.137c0.057,0.026,0.123,0.04,0.199,0.04c0.078,0,0.145-0.015,0.202-0.044
			c0.057-0.029,0.104-0.068,0.142-0.117c0.037-0.049,0.064-0.104,0.082-0.164C40.973,43.04,40.981,42.978,40.981,42.914z"/>
		<path fill="#999999" d="M42.109,43.448c0,0.086-0.015,0.143-0.043,0.171s-0.08,0.043-0.155,0.043c-0.072,0-0.123-0.015-0.15-0.042
			c-0.028-0.027-0.042-0.084-0.042-0.167c0-0.086,0.015-0.144,0.043-0.171c0.028-0.029,0.08-0.043,0.155-0.043
			c0.072,0,0.123,0.014,0.15,0.041C42.096,43.309,42.109,43.364,42.109,43.448z"/>
		<path fill="#999999" d="M44.139,42.466c0,0.18-0.014,0.345-0.042,0.494c-0.028,0.148-0.076,0.276-0.142,0.383
			c-0.066,0.107-0.152,0.19-0.259,0.25c-0.106,0.059-0.238,0.088-0.395,0.088c-0.147,0-0.271-0.027-0.373-0.08
			c-0.101-0.053-0.183-0.129-0.244-0.232c-0.062-0.102-0.105-0.228-0.132-0.377c-0.025-0.149-0.039-0.321-0.039-0.515
			c0-0.179,0.015-0.344,0.044-0.493s0.076-0.277,0.142-0.385s0.151-0.189,0.258-0.248c0.106-0.06,0.237-0.089,0.393-0.089
			c0.148,0,0.273,0.026,0.375,0.079c0.101,0.053,0.182,0.13,0.244,0.232c0.062,0.102,0.105,0.229,0.131,0.377
			C44.126,42.101,44.139,42.272,44.139,42.466z M43.819,42.487c0-0.117-0.004-0.223-0.013-0.316
			c-0.008-0.093-0.021-0.175-0.037-0.246c-0.017-0.072-0.037-0.133-0.063-0.185s-0.058-0.094-0.094-0.127
			c-0.036-0.034-0.077-0.058-0.124-0.073c-0.047-0.015-0.099-0.022-0.157-0.022c-0.103,0-0.187,0.024-0.25,0.073
			c-0.064,0.048-0.115,0.115-0.152,0.199c-0.037,0.085-0.062,0.184-0.075,0.298s-0.02,0.235-0.02,0.366
			c0,0.176,0.009,0.325,0.027,0.448c0.018,0.122,0.047,0.223,0.086,0.3c0.039,0.078,0.09,0.135,0.15,0.17
			c0.062,0.035,0.136,0.053,0.223,0.053c0.067,0,0.127-0.012,0.179-0.033s0.096-0.053,0.133-0.094s0.067-0.09,0.092-0.146
			c0.023-0.057,0.043-0.119,0.058-0.188s0.024-0.144,0.03-0.224C43.816,42.658,43.819,42.575,43.819,42.487z"/>
		<path fill="#999999" d="M46.023,42.466c0,0.18-0.014,0.345-0.042,0.494c-0.029,0.148-0.076,0.276-0.142,0.383
			c-0.066,0.107-0.152,0.19-0.259,0.25c-0.106,0.059-0.238,0.088-0.395,0.088c-0.147,0-0.271-0.027-0.373-0.08
			c-0.101-0.053-0.183-0.129-0.244-0.232c-0.062-0.102-0.105-0.228-0.132-0.377c-0.025-0.149-0.039-0.321-0.039-0.515
			c0-0.179,0.015-0.344,0.044-0.493s0.076-0.277,0.142-0.385s0.151-0.189,0.258-0.248c0.106-0.06,0.237-0.089,0.393-0.089
			c0.148,0,0.273,0.026,0.374,0.079c0.102,0.053,0.183,0.13,0.245,0.232c0.062,0.102,0.105,0.229,0.131,0.377
			C46.011,42.101,46.023,42.272,46.023,42.466z M45.704,42.487c0-0.117-0.004-0.223-0.013-0.316
			c-0.009-0.093-0.021-0.175-0.037-0.246c-0.017-0.072-0.037-0.133-0.063-0.185s-0.058-0.094-0.094-0.127
			c-0.036-0.034-0.078-0.058-0.124-0.073c-0.047-0.015-0.1-0.022-0.157-0.022c-0.103,0-0.187,0.024-0.251,0.073
			c-0.063,0.048-0.114,0.115-0.151,0.199c-0.037,0.085-0.062,0.184-0.075,0.298s-0.02,0.235-0.02,0.366
			c0,0.176,0.009,0.325,0.026,0.448c0.019,0.122,0.047,0.223,0.087,0.3c0.039,0.078,0.089,0.135,0.15,0.17s0.136,0.053,0.223,0.053
			c0.067,0,0.127-0.012,0.179-0.033s0.096-0.053,0.133-0.094c0.036-0.041,0.067-0.09,0.092-0.146
			c0.023-0.057,0.043-0.119,0.058-0.188s0.024-0.144,0.03-0.224C45.701,42.658,45.704,42.575,45.704,42.487z"/>
	</g>
</g>
</svg>
