<?xml version="1.0" encoding="utf-8"?>
<!-- Generator: Adobe Illustrator 15.1.0, SVG Export Plug-In . SVG Version: 6.00 Build 0)  -->
<!DOCTYPE svg PUBLIC "-//W3C//DTD SVG 1.1//EN" "http://www.w3.org/Graphics/SVG/1.1/DTD/svg11.dtd">
<svg version="1.1" id="Ebene_1" xmlns="http://www.w3.org/2000/svg" xmlns:xlink="http://www.w3.org/1999/xlink" x="0px" y="0px"
	 width="2801.793px" height="626.9px" viewBox="-974.906 259.874 2801.793 626.9"
	 enable-background="new -974.906 259.874 2801.793 626.9" xml:space="preserve">
<path fill="none" stroke="#4C8EC7" stroke-width="0.25" d="M1146.782-564.526c0,0,159.307-201.021,305.646-124.362
	c146.34,76.66-1.853,321.977,196.354,313.459c175.169-7.528,128.868-245.315,670.162-107.325 M1146.142-568.785
	c0,0,156.365-201.898,307.567-124.82c145.393,74.115,6.627,311.928,201.469,305.664c174.955-5.625,137.219-232.765,665.563-104.772
	 M1145.5-573.044c0,0,153.383-202.747,309.492-125.279c144.382,71.649,15.116,301.923,206.582,297.87
	c174.754-3.699,145.567-220.213,660.961-102.22 M1144.859-577.303c0,0,150.359-203.565,311.415-125.736
	c143.315,69.255,23.623,291.961,211.698,290.076c174.566-1.75,153.918-207.662,656.359-99.668 M1144.218-581.562
	c0,0,147.298-204.35,313.338-126.195c142.197,66.932,32.139,282.043,216.813,282.281c174.396,0.227,162.271-195.11,651.761-97.115
	 M1143.577-585.821c0,0,144.2-205.098,315.263-126.654c141.029,64.672,40.666,272.169,221.926,274.488
	c174.235,2.229,170.619-182.56,647.16-94.564 M1142.935-590.08c0,0,141.066-205.806,317.187-127.113
	c139.823,62.475,49.201,262.341,227.042,266.694c174.086,4.261,178.97-170.009,642.561-92.012 M1142.294-594.339
	c0,0,137.897-206.471,319.109-127.572c138.578,60.336,57.746,252.559,232.154,258.9c173.949,6.325,187.322-157.457,637.961-89.46
	 M1141.653-598.598c0,0,134.695-207.088,321.032-128.029c137.299,58.251,66.3,242.82,237.271,251.105
	c173.816,8.423,195.67-144.906,633.357-86.907 M1141.012-602.857c0,0,131.46-207.655,322.957-128.489
	c135.986,56.219,74.854,233.132,242.385,243.313c173.693,10.556,204.021-132.356,628.759-84.356 M1140.371-607.116
	c0,0,128.193-208.169,324.88-128.948c134.649,54.235,83.413,223.487,247.498,235.52c173.575,12.727,212.371-119.805,624.158-81.804
	 M1139.729-611.374c0,0,124.896-208.628,326.805-129.407c133.286,52.297,91.975,213.889,252.614,227.724
	c173.46,14.939,220.72-107.252,619.557-79.25 M1139.088-615.635c0,0,121.569-209.024,328.728-129.863
	c131.902,50.402,100.535,204.338,257.729,219.93c173.347,17.194,229.071-94.702,614.957-76.698 M1138.447-619.893
	c0,0,118.213-209.359,330.652-130.322c130.498,48.551,109.093,194.834,262.843,212.136c173.229,19.495,237.421-82.15,610.355-74.146
	 M1137.806-624.151c0,0,114.826-209.628,332.577-130.783c129.075,46.738,117.646,185.376,267.955,204.344
	c173.111,21.844,245.771-69.601,605.758-71.595 M1137.164-628.411c0,0,111.414-209.825,334.5-131.24
	c127.643,44.963,126.197,175.963,273.07,196.548c172.985,24.245,254.122-57.048,601.156-69.041 M1136.523-632.669
	c0,0,107.974-209.949,336.424-131.7c126.193,43.224,134.738,166.596,278.187,188.754c172.851,26.701,262.471-44.496,596.556-66.488
	 M1135.882-636.929c0,0,104.506-209.99,338.346-132.156c124.736,41.518,143.271,157.273,283.301,180.96
	c172.702,29.213,270.823-31.945,591.955-63.938 M1135.24-641.187c0,0,101.014-209.953,340.271-132.617
	c123.269,39.846,151.787,147.996,288.414,173.166c172.537,31.787,279.174-19.394,587.354-61.384 M1134.6-645.446
	c0,0,97.495-209.828,342.195-133.075c121.795,38.202,160.29,138.76,293.527,165.371c172.352,34.424,287.522-6.843,582.754-58.831
	 M1133.958-649.705c0,0,93.953-209.612,344.118-133.534c120.317,36.59,168.774,129.567,298.645,157.578
	c172.14,37.128,295.872,5.709,578.151-56.28 M1133.317-653.964c0,0,90.389-209.301,346.042-133.993
	c118.837,35.006,177.24,120.415,303.758,149.785c171.898,39.902,304.225,18.259,573.553-53.729 M1132.676-658.223
	c0,0,86.801-208.888,347.964-134.45c117.354,33.446,185.682,111.301,308.873,141.989c171.623,42.753,312.574,30.812,568.953-51.175
	 M1132.035-662.482c0,0,83.189-208.37,349.889-134.91c115.869,31.915,194.096,102.227,313.986,134.196
	c171.305,45.68,320.925,43.362,564.354-48.622 M1131.393-666.741c0,0,79.561-207.741,351.813-135.368
	c114.388,30.407,202.48,93.187,319.103,126.402c170.94,48.688,329.272,55.913,559.752-46.071 M1130.752-671
	c0,0,75.911-206.997,353.735-135.827c112.91,28.924,210.833,84.18,324.217,118.607c170.523,51.778,337.625,68.466,555.151-43.518
	 M1130.111-675.26c0,0,72.243-206.132,355.66-136.285c283.414,69.847,542.749,270.868,879.882,69.849"/>
<text transform="matrix(1 0 0 1 340.845 624.0989)" font-family="'MavenProBold'" font-size="31.1061"> </text>
<g>
	<path fill="none" stroke="#FECB09" stroke-width="2" d="M-2219.606,809.368c0,0,608.282-428.533,1062.587-386.979
		c454.306,41.554-134.84,537.308,525.396,406.482c583.5-115.622,525.115-484.39,2263.741-573.117 M-2220.028,802.649
		c0,0,598.886-428.257,1069.141-388.871c452.191,37.871-102.73,515.582,545.461,390.493
		C-23.392,691.945-57.654,335.875,1642.06,238.109 M-2220.451,795.936c0,0,589.341-427.918,1075.7-390.77
		c449.827,34.36-70.585,493.924,565.527,374.499C1.368,670.666-8.798,327.262,1651.998,220.467 M-2220.872,789.217
		c0,0,579.652-427.504,1082.258-392.66c447.249,30.997-38.424,472.329,585.59,358.507
		C26.181,649.425,40.053,318.653,1661.932,202.825 M-2221.295,782.506c0,0,569.817-427.009,1088.82-394.56
		c444.461,27.789-6.241,450.799,605.65,342.518C51.011,628.216,88.905,310.038,1671.869,185.177 M-2221.718,775.788
		c0,0,559.851-426.429,1095.378-396.453c441.506,24.71,25.963,429.335,625.716,326.532
		C75.88,607.043,137.765,301.424,1681.804,167.533 M-2222.141,769.075c0,0,549.75-425.767,1101.938-398.354
		c438.378,21.764,58.182,407.948,645.779,310.542c575.202-95.349,661.04-388.451,2166.159-531.373 M-2222.563,762.358
		c0,0,539.513-425.001,1108.493-400.249c435.113,18.938,90.407,386.626,665.844,294.552
		c573.917-91.828,683.699-372.459,2149.903-524.418 M-2222.984,755.645c0,0,529.146-424.152,1115.051-402.146
		c431.698,16.214,122.635,365.378,685.912,278.563c572.635-88.26,706.344-356.474,2133.627-517.458 M-2223.406,748.927
		c0,0,518.652-423.191,1121.604-404.041c428.174,13.605,154.862,344.206,705.977,262.573
		C175.554,522.824,333.183,266.974,1721.55,96.956 M-2223.831,742.213c0,0,508.035-422.124,1128.17-405.936
		c424.528,11.083,187.077,323.107,726.034,246.582c570.125-80.95,751.666-324.495,2101.104-503.542 M-2224.254,735.5
		c0,0,497.292-420.952,1134.722-407.836c420.791,8.655,219.293,302.085,746.104,230.596
		C225.434,481.059,430.899,249.75,1741.42,61.672 M-2224.677,728.78c0,0,486.419-419.649,1141.282-409.725
		c416.963,6.32,251.477,281.143,766.171,214.605c567.574-73.379,796.968-292.523,2068.576-489.633 M-2225.1,722.062
		c0,0,475.437-418.23,1147.845-411.621c413.042,4.063,283.636,260.279,786.229,198.612
		c566.274-69.472,819.628-276.531,2052.31-482.669 M-2225.522,715.347c0,0,464.322-416.685,1154.398-413.516
		c409.064,1.879,315.777,239.489,806.294,182.623C300.122,418.963,577.458,223.913,1771.214,8.745 M-2225.942,708.634
		c0,0,453.087-415.008,1160.959-415.417c405.016-0.23,347.864,218.789,826.355,166.635
		C324.935,398.431,626.31,215.301,1781.147-8.902 M-2226.365,701.92c0,0,441.734-413.187,1167.519-417.309
		c400.914-2.283,379.911,198.154,846.424,150.644c562.139-57.254,887.587-228.567,2003.509-461.802 M-2226.787,695.203
		c0,0,430.264-411.218,1174.078-419.21c396.761-4.251,411.908,177.621,866.485,134.659
		C374.419,357.67,724.022,198.074,1801.012-44.184 M-2227.212,688.488c0,0,418.677-409.101,1180.633-421.1
		c392.57-6.187,443.844,157.147,886.554,118.664c559.066-48.598,932.902-196.588,1970.975-447.879 M-2227.633,681.772
		c0,0,406.968-406.821,1187.19-422.997c388.347-8.052,475.719,136.762,906.618,102.675
		c557.397-44.097,955.562-180.6,1954.71-440.923 M-2228.055,675.054c0,0,395.146-404.376,1193.75-424.891
		c384.092-9.867,507.512,116.46,926.679,86.685C447.99,297.381,870.591,172.237,1830.824-97.113 M-2228.476,668.343
		c0,0,383.205-401.759,1200.305-426.794c379.817-11.635,539.221,96.242,946.749,70.696
		c553.703-34.703,1000.871-148.62,1922.174-427.002 M-2228.898,661.628c0,0,371.146-398.963,1206.862-428.688
		c375.521-13.354,570.833,76.093,966.813,54.706c551.646-29.797,1023.519-132.633,1905.913-420.05 M-2229.322,654.904
		c0,0,358.982-395.97,1213.425-430.578c371.218-15.033,602.344,56.03,986.873,38.717
		c549.431-24.735,1046.188-116.644,1889.657-413.092 M-2229.743,648.196c0,0,346.696-392.788,1219.979-432.478
		c366.915-16.674,633.748,36.036,1006.934,22.725c547.022-19.512,1068.839-100.657,1873.395-406.131 M-2230.168,641.479
		c0,0,334.31-389.402,1226.543-434.37c362.608-18.278,665.024,16.121,1027.002,6.73
		c544.403-14.115,1091.485-84.661,1857.124-399.174 M-2230.588,634.767c0,0,321.802-385.804,1233.098-436.269
		C-86.203,148.03,692.841,330.199,1890.431-202.975"/>
</g>
</svg>
