<?xml version="1.0" encoding="utf-8"?>
<!-- Generator: Adobe Illustrator 14.0.0, SVG Export Plug-In . SVG Version: 6.00 Build 43363)  -->
<!DOCTYPE svg PUBLIC "-//W3C//DTD SVG 1.1//EN" "http://www.w3.org/Graphics/SVG/1.1/DTD/svg11.dtd">
<svg version="1.1" id="Ebene_1" xmlns="http://www.w3.org/2000/svg" xmlns:xlink="http://www.w3.org/1999/xlink" x="0px" y="0px"
	 width="841.891px" height="595.276px" viewBox="0 0 841.891 595.276" enable-background="new 0 0 841.891 595.276"
	 xml:space="preserve">
<path fill="none" stroke="#4C8EC7" stroke-width="0.25" d="M-267.217-260.526c0,0,159.306-201.022,305.645-124.362
	c146.34,76.66-1.853,321.976,196.354,313.459c175.169-7.529,128.868-245.316,670.162-107.326 M-267.858-264.785
	c0,0,156.365-201.898,307.567-124.82C185.102-315.49,46.336-77.677,241.178-83.941c174.955-5.625,137.219-232.765,665.563-104.773
	 M-268.5-269.044c0,0,153.383-202.747,309.492-125.279C185.374-322.674,56.109-92.4,247.574-96.453
	c174.755-3.699,145.568-220.213,660.962-102.22 M-269.141-273.303c0,0,150.359-203.566,311.415-125.737
	c143.315,69.255,23.623,291.961,211.698,290.076c174.567-1.75,153.918-207.662,656.36-99.668 M-269.782-277.562
	c0,0,147.298-204.35,313.338-126.196c142.197,66.932,32.139,282.043,216.812,282.282c174.396,0.226,162.271-195.111,651.761-97.116
	 M-270.423-281.821c0,0,144.201-205.098,315.263-126.654c141.029,64.672,40.666,272.169,221.926,274.488
	c174.235,2.229,170.619-182.56,647.16-94.564 M-271.065-286.08c0,0,141.066-205.805,317.186-127.113
	c139.824,62.475,49.202,262.341,227.042,266.694c174.086,4.261,178.97-170.009,642.561-92.011 M-271.706-290.339
	c0,0,137.898-206.47,319.11-127.572c138.578,60.336,57.746,252.559,232.154,258.901c173.949,6.325,187.322-157.458,637.961-89.46
	 M-272.347-294.598c0,0,134.695-207.088,321.032-128.03c137.299,58.251,66.3,242.821,237.271,251.106
	c173.817,8.423,195.67-144.906,633.358-86.907 M-272.988-298.857c0,0,131.46-207.655,322.957-128.489
	c135.986,56.218,74.854,233.131,242.385,243.313c173.693,10.556,204.021-132.356,628.759-84.356 M-273.629-303.116
	c0,0,128.194-208.169,324.88-128.948c134.65,54.235,83.413,223.487,247.499,235.519c173.575,12.727,212.371-119.804,624.158-81.803
	 M-274.271-307.374c0,0,124.896-208.628,326.804-129.407c133.287,52.297,91.975,213.889,252.615,227.724
	c173.46,14.939,220.72-107.252,619.557-79.25 M-274.912-311.634c0,0,121.569-209.025,328.728-129.864
	c131.902,50.403,100.535,204.338,257.728,219.93c173.347,17.194,229.072-94.702,614.957-76.698 M-275.553-315.893
	c0,0,118.212-209.36,330.652-130.323c130.498,48.551,109.093,194.834,262.843,212.136c173.229,19.495,237.421-82.15,610.355-74.145
	 M-276.194-320.151c0,0,114.826-209.628,332.577-130.783c129.075,46.738,117.647,185.376,267.955,204.343
	c173.112,21.844,245.772-69.6,605.758-71.594 M-276.836-324.411c0,0,111.414-209.825,334.5-131.24
	c127.643,44.963,126.198,175.963,273.071,196.548c172.985,24.245,254.122-57.048,601.156-69.041 M-277.477-328.669
	c0,0,107.973-209.949,336.424-131.7c126.193,43.224,134.738,166.596,278.186,188.754c172.851,26.701,262.471-44.496,596.556-66.488
	 M-278.118-332.929c0,0,104.506-209.991,338.346-132.157c124.736,41.518,143.27,157.274,283.301,180.96
	c172.702,29.213,270.823-31.945,591.955-63.937 M-278.759-337.187c0,0,101.013-209.953,340.271-132.617
	c123.269,39.845,151.787,147.996,288.414,173.166c172.537,31.787,279.174-19.394,587.355-61.384 M-279.4-341.446
	c0,0,97.495-209.828,342.195-133.075c121.795,38.202,160.29,138.76,293.528,165.371c172.351,34.424,287.522-6.843,582.754-58.831
	 M-280.042-345.705c0,0,93.953-209.612,344.118-133.534c120.318,36.59,168.775,129.567,298.645,157.578
	c172.14,37.128,295.872,5.709,578.152-56.28 M-280.683-349.964c0,0,90.388-209.3,346.042-133.993
	c118.837,35.006,177.24,120.415,303.758,149.785c171.898,39.903,304.224,18.259,573.553-53.728 M-281.324-354.223
	c0,0,86.801-208.888,347.964-134.451c117.354,33.447,185.682,111.301,308.873,141.99c171.623,42.753,312.574,30.811,568.953-51.175
	 M-281.965-358.482c0,0,83.19-208.37,349.889-134.91c115.869,31.915,194.096,102.226,313.987,134.196
	c171.304,45.68,320.924,43.362,564.353-48.622 M-282.607-362.741c0,0,79.56-207.741,351.813-135.368
	c114.388,30.407,202.481,93.186,319.103,126.402c170.94,48.688,329.273,55.913,559.752-46.071 M-283.248-367
	c0,0,75.911-206.997,353.736-135.827c112.91,28.924,210.833,84.18,324.217,118.608c170.523,51.778,337.625,68.465,555.151-43.518
	 M-283.889-371.259c0,0,72.243-206.132,355.66-136.286c283.414,69.847,542.749,270.869,879.882,69.849"/>
<text transform="matrix(1 0 0 1 364.8452 540.0986)" font-family="'MavenProBold'" font-size="31.1061"> </text>
<g enable-background="new    ">
	<path fill="none" stroke="#FECB09" stroke-width="0.35" d="M-389.828,450.066c0,0,233.069-203.434,375.16-73.378
		C127.424,506.745-105.45,766.715,117.96,806.61c197.445,35.256,211.325-264.868,777.021,39.65 M-389.369,444.739
		c0,0,230.03-205.243,377.431-73.447C129.8,498.022-90.497,751.281,128.541,793.056c196.683,37.512,217.18-247.527,771.19,41.582
		 M-388.911,439.411c0,0,226.938-207.028,379.703-73.517c141.291,123.485-66.33,370.008,148.332,413.607
		c195.926,39.796,223.035-230.188,765.354,43.513 M-388.452,434.083c0,0,223.792-208.787,381.975-73.584
		c140.76,120.309-54.101,360.079,156.183,405.451c195.184,42.114,228.888-212.853,759.521,45.441 M-387.994,428.756
		c0,0,220.593-210.516,384.247-73.654C136.404,472.31-45.616,705.311,160.288,752.396c194.445,44.467,234.743-195.514,753.687,47.37
		 M-387.536,423.427c0,0,217.344-212.206,386.52-73.721C138.458,463.878-30.655,690.1,170.87,738.844
		c193.715,46.854,240.6-178.177,747.852,49.3 M-387.078,418.101c0,0,214.044-213.86,388.792-73.791
		c138.732,111.2-17.409,330.637,179.738,380.98c192.99,49.282,246.453-160.838,742.018,51.23 M-386.619,412.772
		c0,0,210.692-215.467,391.063-73.861c137.933,108.292-5.185,320.939,187.59,372.825c192.266,51.75,252.308-143.499,736.184,53.159
		 M-386.161,407.445c0,0,207.291-217.028,393.335-73.929c137.079,105.438,7.035,311.296,195.443,364.668
		c191.539,54.26,258.162-126.163,730.347,55.088 M-385.702,402.116c0,0,203.839-218.535,395.606-73.998
		c136.179,102.643,19.248,301.713,203.295,356.513c190.815,56.815,264.017-108.824,724.516,57.019 M-385.244,396.788
		c0,0,200.338-219.986,397.879-74.064c135.232,99.895,31.45,292.183,211.145,348.354c190.087,59.42,269.874-91.486,718.682,58.948
		 M-384.786,391.462c0,0,196.787-221.38,400.15-74.136c134.248,97.199,43.645,282.714,218.998,340.198
		c189.35,62.072,275.73-74.146,712.848,60.878 M-384.327,386.134c0,0,193.183-222.705,402.421-74.203
		c133.226,94.552,55.824,273.298,226.852,332.042c188.598,64.777,281.581-56.811,707.012,62.807 M-383.869,380.805
		c0,0,189.533-223.96,404.694-74.272c132.168,91.95,67.989,263.941,234.702,323.885c187.837,67.542,287.438-39.47,701.179,64.737
		 M-383.411,375.478c0,0,185.831-225.144,406.966-74.342c131.084,89.392,80.139,254.639,242.553,315.729
		c187.059,70.359,293.295-22.132,695.345,66.667 M-382.952,370.149c0,0,182.078-226.247,409.238-74.409
		c129.973,86.876,92.266,245.39,250.405,307.57c186.255,73.24,299.148-4.794,689.51,68.597 M-382.494,364.823
		c0,0,178.275-227.269,411.511-74.48c128.837,84.399,104.372,236.193,258.257,299.416c185.429,76.182,305.002,12.543,683.676,70.525
		 M-382.035,359.494c0,0,174.419-228.199,413.782-74.548c127.68,81.963,116.455,227.049,266.109,291.259
		c184.57,79.191,310.857,29.881,677.84,72.456 M-381.578,354.166c0,0,170.515-229.038,416.054-74.616
		c126.506,79.561,128.513,217.954,273.962,283.103c183.677,82.271,316.712,47.219,672.006,74.386 M-381.119,348.839
		c0,0,166.556-229.778,418.325-74.686c125.316,77.195,140.543,208.907,281.814,274.945
		c182.742,85.423,322.567,64.558,666.172,76.316 M-380.66,343.511c0,0,162.546-230.414,420.597-74.753
		c124.111,74.864,152.539,199.908,289.665,266.788c181.763,88.651,328.425,81.897,660.34,78.245 M-380.202,338.183
		c0,0,158.484-230.937,422.869-74.823c122.896,72.567,164.5,190.954,297.518,258.631c180.728,91.956,334.277,99.235,654.503,80.176
		 M-379.744,332.855c0,0,154.368-231.347,425.141-74.892c121.67,70.303,176.426,182.04,305.369,250.475
		c179.635,95.341,340.132,116.573,648.669,82.104 M-379.285,327.526c0,0,150.2-231.633,427.413-74.959
		c120.438,68.068,188.311,173.164,313.22,242.319c178.476,98.809,345.989,133.91,642.837,84.033 M-378.827,322.2
		c0,0,145.977-231.792,429.685-75.029c119.201,65.864,200.154,164.324,321.07,234.162
		c177.241,102.363,351.845,151.248,637.004,85.964 M-378.369,316.872c0,0,141.703-231.814,431.958-75.099
		c117.961,63.69,211.951,155.519,328.924,226.006c175.923,106.009,357.697,168.587,631.168,87.893 M-377.91,311.544
		c0,0,137.372-231.692,434.229-75.166c296.854,156.526,530.705,466.042,962.108,307.671"/>
</g>
</svg>
