<?xml version="1.0" encoding="utf-8"?>
<!-- Generator: Adobe Illustrator 15.1.0, SVG Export Plug-In . SVG Version: 6.00 Build 0)  -->
<!DOCTYPE svg PUBLIC "-//W3C//DTD SVG 1.0//EN" "http://www.w3.org/TR/2001/REC-SVG-20010904/DTD/svg10.dtd">
<svg version="1.0" id="Ebene_1" xmlns="http://www.w3.org/2000/svg" xmlns:xlink="http://www.w3.org/1999/xlink" x="0px" y="0px"
	 width="289.381px" height="82.966px" viewBox="0 0 289.381 82.966" enable-background="new 0 0 289.381 82.966"
	 xml:space="preserve">
<g>
	<text transform="matrix(1 0 0 1 6.1802 27.5054)" fill="#273863" font-family="'MavenProBold'" font-size="33">team</text>
	
		<text transform="matrix(1.28 0 0 1 3 68.5049)" fill="#273863" stroke="#F7A605" stroke-width="3" stroke-miterlimit="10" font-family="'Andika'" font-size="63" letter-spacing="7.031"> </text>
	
		<text transform="matrix(1 0 0 1 34.333 68.5049)" fill="#273863" stroke="#FCBC01" stroke-width="3" stroke-miterlimit="10" font-family="'Andika'" font-size="63" letter-spacing="-16"> </text>
	
		<text transform="matrix(1 0 0 1 34.8721 68.5049)" fill="#273863" stroke="#FCBC01" stroke-width="3" stroke-miterlimit="10" font-family="'Andika'" font-size="63" letter-spacing="-12">           </text>
	
		<text transform="matrix(1 0 0 1 82.3804 68.5049)" fill="#273863" stroke="#FCBC01" stroke-width="3" stroke-miterlimit="10" font-family="'Andika'" font-size="63" letter-spacing="-13"> </text>
	<text transform="matrix(1 0 0 1 85.4395 69.5049)" fill="none" font-family="'MavenProBold'" font-size="50" letter-spacing="-3">S</text>
	
		<text transform="matrix(0.7 0 0 0.7 111.4678 69.5049)" fill="#273863" font-family="'MavenProBold'" font-size="50" letter-spacing="-1.429">o</text>
	
		<text transform="matrix(0.7 0 0 0.7 136.7368 69.5049)" fill="#273863" font-family="'MavenProBold'" font-size="50" letter-spacing="2.857">f</text>
	
		<text transform="matrix(0.7 0 0 0.7 158.354 69.5049)" fill="#273863" font-family="'MavenProBold'" font-size="50" letter-spacing="2.857">t</text>
	
		<text transform="matrix(0.7 0 0 0.7 180.3618 69.5049)" fill="#273863" font-family="'MavenProBold'" font-size="50" letter-spacing="-2.857">w</text>
	<text transform="matrix(0.7 0 0 0.7 212.7554 69.5049)" fill="#273863" font-family="'MavenProBold'" font-size="50">a</text>
	<text transform="matrix(0.7 0 0 0.7 236.5063 69.5049)" fill="#273863" font-family="'MavenProBold'" font-size="50">re</text>
	<g>
		<path fill="#273863" d="M108.672,54.572c-1.16-1.6-2.58-2.729-4.25-3.379c-1.67-0.65-3.33-1.201-4.979-1.631
			c-1.65-0.43-3.061-0.96-4.221-1.58c-1.17-0.63-1.75-1.5-1.75-2.6c0-1.37,0.641-2.37,1.92-3.01c1.28-0.631,2.83-0.95,4.67-0.95
			c2.931,0,5.681,0.851,8.261,2.54v-5.881c-2.98-1.549-5.971-2.319-8.96-2.319c-3.41,0-6.24,0.819-8.5,2.46
			c-2.261,1.641-3.391,4.07-3.391,7.301c0,1.84,0.41,3.379,1.24,4.629c0.83,1.24,1.88,2.16,3.15,2.75
			c1.27,0.58,2.63,1.121,4.08,1.621c1.449,0.5,2.81,0.93,4.079,1.289c1.271,0.37,2.311,0.94,3.15,1.7
			c0.83,0.771,1.24,1.729,1.24,2.88c0,2.561-2.3,3.7-6.88,3.83c-3.54,0.1-6.37-0.97-8.721-2.54c-0.34-0.229-0.68-0.47-1-0.729
			l0.471,1.83l1.34,5.18c2.729,1.21,5.85,2.05,9.3,1.93c3.2-0.119,5.92-0.85,8.15-2.55c2.229-1.69,3.35-3.88,3.35-6.56
			C110.422,58.242,109.833,56.173,108.672,54.572z"/>
	</g>
	<g>
		<path fill="#A0C7EB" d="M80.623,62.943c-1.76,0.42-3.44-0.141-3.93-0.311c-0.511-0.16-1.391-0.801-1.801-1.25
			c-0.47-0.49-0.89-1.189-1.27-2.1c-0.37-0.871-0.72-1.98-1.061-3.311c1.271-2.189,2.48-4.66,3.61-7.35
			c1.21-2.891,2.39-6.17,3.5-9.73l0.6-1.939h-9.47l-0.229,1.229c-0.34,1.87-0.75,3.64-1.221,5.271c-0.1,0.34-0.199,0.68-0.3,1.01
			c-0.35-0.67-0.72-1.29-1.1-1.86c-1.04-1.521-2.23-2.76-3.53-3.68c-1.31-0.92-2.77-1.591-4.34-1.99
			c-1.521-0.38-3.18-0.569-4.94-0.569c-1.93,0-3.75,0.239-5.43,0.699c-1.68,0.471-3.24,1.141-4.63,2c-1.38,0.86-2.64,1.9-3.72,3.07
			c-1.091,1.18-2.011,2.5-2.74,3.92c-0.73,1.41-1.29,2.93-1.67,4.52c-0.37,1.58-0.561,3.221-0.561,4.871
			c0,2.58,0.42,4.859,1.271,6.76c0.85,1.92,2.03,3.52,3.49,4.77c1.449,1.23,3.159,2.15,5.069,2.74c1.86,0.57,3.851,0.85,5.92,0.85
			c3.03,0,5.931-0.699,8.63-2.1c2.07-1.07,4.08-2.6,6-4.57c0.391,0.84,0.801,1.561,1.23,2.189c0.82,1.191,1.77,2.111,2.83,2.74
			c1.04,0.641,2.24,1.041,3.55,1.221c1.18,0.15,2.521,0.23,4.01,0.23c0,0,2.271-0.16,3.92-0.761L80.623,62.943z M61.342,58.152
			c-1.03,1.021-2.08,1.871-3.13,2.53c-1.02,0.649-2.03,1.14-3,1.45c-2.07,0.66-3.9,0.59-5.28-0.109
			c-0.76-0.391-1.39-0.921-1.92-1.601c-0.54-0.69-0.96-1.54-1.24-2.511c-0.3-1.02-0.449-2.149-0.449-3.35
			c0-1.58,0.229-3.05,0.68-4.369c0.43-1.291,1.04-2.41,1.81-3.33c0.75-0.891,1.631-1.601,2.62-2.09
			c0.99-0.48,2.021-0.721,3.141-0.721c0.56,0,1.13,0.04,1.72,0.12c0.49,0.069,1,0.22,1.51,0.46c0.521,0.24,1.061,0.6,1.601,1.07
			c0.54,0.479,1.09,1.129,1.619,1.959c0.561,0.861,1.101,1.951,1.61,3.24c0.46,1.15,0.91,2.551,1.34,4.16
			C63.123,56.232,62.243,57.263,61.342,58.152z"/>
	</g>
</g>
<text transform="matrix(1 0 0 1 279.269 44.6738)" fill="#273863" font-family="'MavenProMedium'" font-size="13">®</text>
</svg>
