<?xml version="1.0" encoding="utf-8"?>
<!-- Generator: Adobe Illustrator 15.1.0, SVG Export Plug-In . SVG Version: 6.00 Build 0)  -->
<!DOCTYPE svg PUBLIC "-//W3C//DTD SVG 1.0//EN" "http://www.w3.org/TR/2001/REC-SVG-20010904/DTD/svg10.dtd">
<svg version="1.0" id="Ebene_1" xmlns="http://www.w3.org/2000/svg" xmlns:xlink="http://www.w3.org/1999/xlink" x="0px" y="0px"
	 width="349.349px" height="105.319px" viewBox="0 0 349.349 105.319" enable-background="new 0 0 349.349 105.319"
	 xml:space="preserve">
<g>
	<g>
		<g>
			<text transform="matrix(1 0 0 1 66.1475 27.5054)" fill="#273863" font-family="'MavenProBold'" font-size="33">team</text>
			
				<text transform="matrix(1.28 0 0 1 62.9673 68.5049)" fill="#273863" stroke="#F7A605" stroke-width="3" stroke-miterlimit="10" font-family="'Andika'" font-size="63" letter-spacing="7.031"> </text>
			
				<text transform="matrix(1 0 0 1 94.3003 68.5049)" fill="#273863" stroke="#FCBC01" stroke-width="3" stroke-miterlimit="10" font-family="'Andika'" font-size="63" letter-spacing="-16"> </text>
			
				<text transform="matrix(1 0 0 1 94.8394 68.5049)" fill="#273863" stroke="#FCBC01" stroke-width="3" stroke-miterlimit="10" font-family="'Andika'" font-size="63" letter-spacing="-12">           </text>
			
				<text transform="matrix(1 0 0 1 142.3477 68.5049)" fill="#273863" stroke="#FCBC01" stroke-width="3" stroke-miterlimit="10" font-family="'Andika'" font-size="63" letter-spacing="-13"> </text>
			
				<text transform="matrix(1 0 0 1 145.4067 69.5049)" fill="#FFFFFF" font-family="'MavenProBold'" font-size="50" letter-spacing="-3">S</text>
			
				<text transform="matrix(0.7 0 0 0.7 171.4351 69.5049)" fill="#273863" font-family="'MavenProBold'" font-size="50" letter-spacing="-1.429">o</text>
			
				<text transform="matrix(0.7 0 0 0.7 196.7041 69.5049)" fill="#273863" font-family="'MavenProBold'" font-size="50" letter-spacing="2.857">f</text>
			
				<text transform="matrix(0.7 0 0 0.7 218.3213 69.5049)" fill="#273863" font-family="'MavenProBold'" font-size="50" letter-spacing="2.857">t</text>
			
				<text transform="matrix(0.7 0 0 0.7 240.3291 69.5049)" fill="#273863" font-family="'MavenProBold'" font-size="50" letter-spacing="-2.857">w</text>
			<text transform="matrix(0.7 0 0 0.7 272.7227 69.5049)" fill="#273863" font-family="'MavenProBold'" font-size="50">a</text>
			<text transform="matrix(0.7 0 0 0.7 296.4736 69.5049)" fill="#273863" font-family="'MavenProBold'" font-size="50">re</text>
			<g>
				<path fill="#273863" d="M168.64,54.572c-1.16-1.6-2.58-2.729-4.25-3.379c-1.67-0.65-3.33-1.201-4.979-1.631
					c-1.65-0.43-3.061-0.96-4.221-1.58c-1.17-0.63-1.75-1.5-1.75-2.6c0-1.37,0.641-2.37,1.92-3.01c1.28-0.631,2.83-0.95,4.67-0.95
					c2.931,0,5.681,0.851,8.261,2.54v-5.881c-2.98-1.549-5.971-2.319-8.96-2.319c-3.41,0-6.24,0.819-8.5,2.46
					c-2.261,1.641-3.391,4.07-3.391,7.301c0,1.84,0.41,3.379,1.24,4.629c0.83,1.24,1.88,2.16,3.15,2.75
					c1.27,0.58,2.63,1.121,4.08,1.621c1.449,0.5,2.81,0.93,4.079,1.289c1.271,0.37,2.311,0.94,3.15,1.7
					c0.83,0.771,1.24,1.729,1.24,2.88c0,2.561-2.3,3.7-6.88,3.83c-3.54,0.1-6.37-0.97-8.721-2.54c-0.34-0.229-0.68-0.47-1-0.729
					l0.471,1.83l1.34,5.18c2.729,1.21,5.85,2.05,9.3,1.93c3.2-0.119,5.92-0.85,8.15-2.55c2.229-1.69,3.35-3.88,3.35-6.56
					C170.39,58.242,169.8,56.173,168.64,54.572z"/>
			</g>
			<g>
				<path fill="#F7A600" d="M140.59,62.943c-1.76,0.42-3.44-0.141-3.93-0.311c-0.511-0.16-1.391-0.801-1.801-1.25
					c-0.47-0.49-0.89-1.189-1.27-2.1c-0.37-0.871-0.72-1.98-1.061-3.311c1.271-2.189,2.48-4.66,3.61-7.35
					c1.21-2.891,2.39-6.17,3.5-9.73l0.6-1.939h-9.47l-0.229,1.229c-0.34,1.87-0.75,3.64-1.221,5.271c-0.1,0.34-0.199,0.68-0.3,1.01
					c-0.35-0.67-0.72-1.29-1.1-1.86c-1.04-1.521-2.23-2.76-3.53-3.68c-1.31-0.92-2.77-1.591-4.34-1.99
					c-1.521-0.38-3.18-0.569-4.94-0.569c-1.93,0-3.75,0.239-5.43,0.699c-1.68,0.471-3.24,1.141-4.63,2
					c-1.38,0.86-2.64,1.9-3.72,3.07c-1.091,1.18-2.011,2.5-2.74,3.92c-0.73,1.41-1.29,2.93-1.67,4.52
					c-0.37,1.58-0.561,3.221-0.561,4.871c0,2.58,0.42,4.859,1.271,6.76c0.85,1.92,2.03,3.52,3.49,4.77
					c1.449,1.23,3.159,2.15,5.069,2.74c1.86,0.57,3.851,0.85,5.92,0.85c3.03,0,5.931-0.699,8.63-2.1c2.07-1.07,4.08-2.6,6-4.57
					c0.391,0.84,0.801,1.561,1.23,2.189c0.82,1.191,1.77,2.111,2.83,2.74c1.04,0.641,2.24,1.041,3.55,1.221
					c1.18,0.15,2.521,0.23,4.01,0.23c0,0,2.271-0.16,3.92-0.761L140.59,62.943z M121.31,58.152c-1.03,1.021-2.08,1.871-3.13,2.53
					c-1.02,0.649-2.03,1.14-3,1.45c-2.07,0.66-3.9,0.59-5.28-0.109c-0.76-0.391-1.39-0.921-1.92-1.601
					c-0.54-0.69-0.96-1.54-1.24-2.511c-0.3-1.02-0.449-2.149-0.449-3.35c0-1.58,0.229-3.05,0.68-4.369
					c0.43-1.291,1.04-2.41,1.81-3.33c0.75-0.891,1.631-1.601,2.62-2.09c0.99-0.48,2.021-0.721,3.141-0.721
					c0.56,0,1.13,0.04,1.72,0.12c0.49,0.069,1,0.22,1.51,0.46c0.521,0.24,1.061,0.6,1.601,1.07c0.54,0.479,1.09,1.129,1.619,1.959
					c0.561,0.861,1.101,1.951,1.61,3.24c0.46,1.15,0.91,2.551,1.34,4.16C123.09,56.232,122.21,57.263,121.31,58.152z"/>
			</g>
		</g>
		<text transform="matrix(1 0 0 1 339.2363 44.6738)" fill="#273863" font-family="'MavenProMedium'" font-size="13">®</text>
	</g>
	<g>
		<linearGradient id="SVGID_1_" gradientUnits="userSpaceOnUse" x1="0.2002" y1="47.731" x2="38.8301" y2="47.731">
			<stop  offset="0" style="stop-color:#375D91"/>
			<stop  offset="1" style="stop-color:#273863"/>
		</linearGradient>
		<path fill="url(#SVGID_1_)" d="M33.351,52.076l-10.17,2.069l-0.44,0.08c-4.78-4.25-11.32-8.229-20.26-11.229
			c-0.65-0.23-1.311-0.44-1.98-0.65c-0.1-0.04-0.2-0.07-0.3-0.09l18.6-1.01h0.15l0.09-0.01c0,0,0.01,0.01,0.021,0.01
			c0.09,0.029,0.17,0.05,0.25,0.08h0.01c0.02,0,0.03,0,0.04,0.02c8.29,2.561,14.63,5.94,19.47,9.641L33.351,52.076z"/>
		<linearGradient id="SVGID_2_" gradientUnits="userSpaceOnUse" x1="26.5703" y1="67.126" x2="53.7305" y2="67.126">
			<stop  offset="0" style="stop-color:#375D91"/>
			<stop  offset="1" style="stop-color:#273863"/>
		</linearGradient>
		<path fill="url(#SVGID_2_)" d="M53.73,73.025l-0.101,0.04l-17.84,7.04c-0.02-0.67-0.08-1.8-0.31-3.27
			c-0.65-4.33-2.67-11.62-8.91-18.75l0.42-0.1l7.28-1.78l8.3-2.061C49.59,60.806,52.51,67.976,53.73,73.025z"/>
		<path fill="#F7A600" d="M22.01,53.116c0.391,0.34,0.78,0.68,1.171,1.029l-0.44,0.08l-1.32,0.271c-0.109-0.09-0.22-0.19-0.34-0.29
			c-3.05-2.63-6.43-4.86-9.979-6.811C7.54,45.466,3.82,43.815,0,42.346c0.83,0.2,1.66,0.41,2.48,0.65
			c3.12,0.859,6.189,1.99,9.13,3.41C15.33,48.186,18.851,50.426,22.01,53.116z"/>
		<path fill="#F7A600" d="M35.7,79.256c-0.92-2.92-1.56-5.82-2.39-7.98c-1.24-3.199-3.051-6.42-4.2-8.13
			c-1.13-1.68-2.38-3.27-3.73-4.77l1.19-0.29l0.42-0.1c1.25,1.42,2.39,2.92,3.34,4.52c0.95,1.57,3.23,6.4,4.2,9.24
			c0.76,2.22,0.88,3.729,0.95,5.09C35.53,77.646,35.561,78.416,35.7,79.256z"/>
		<g>
			<linearGradient id="SVGID_3_" gradientUnits="userSpaceOnUse" x1="19.2007" y1="45.1558" x2="56.0302" y2="45.1558">
				<stop  offset="0" style="stop-color:#375D91"/>
				<stop  offset="1" style="stop-color:#273863"/>
			</linearGradient>
			<path fill="url(#SVGID_3_)" d="M52.5,48.256l-10.04,2l-1.09,0.22c-4.68-3.84-10.38-7.16-16.95-9.31
				c-0.33-0.11-0.66-0.22-0.989-0.32c-0.12-0.04-0.221-0.07-0.32-0.1l16.859-0.91h0.171c0.01,0,0.01,0,0.01,0
				c0.05,0.01,0.18,0.02,0.21,0.04h0.03c0.01,0,0.02,0,0.029,0.01c5.25,1.61,10.71,4.28,15.61,7.66
				C54.851,47.786,53.681,48.025,52.5,48.256z"/>
			<linearGradient id="SVGID_4_" gradientUnits="userSpaceOnUse" x1="44.8105" y1="61.1064" x2="71.5815" y2="61.1064">
				<stop  offset="0" style="stop-color:#FFEFB0"/>
				<stop  offset="0.1435" style="stop-color:#FFE47D"/>
				<stop  offset="0.4979" style="stop-color:#F7A600"/>
				<stop  offset="0.8368" style="stop-color:#FFCD1C"/>
				<stop  offset="1" style="stop-color:#FFE47D"/>
			</linearGradient>
			<path fill="url(#SVGID_4_)" d="M71.58,65.796c0.01,0.01-0.04,0.05-0.03,0.07l-16.1,6.35c-0.03-0.229-0.07-0.47-0.11-0.71
				c-0.949-5.48-4.63-12.07-10.529-17.91l1.04-0.26l7.38-1.83c2.029-0.51,4.05-1.01,6.08-1.51
				C64.95,54.516,69.5,59.986,71.58,65.796z"/>
			<path fill="#FBBA00" d="M40.891,49.006c0.529,0.41,1.05,0.83,1.569,1.25l-1.09,0.22l-0.5,0.101c-2.32-1.771-4.8-3.33-7.36-4.771
				c-0.35-0.189-0.689-0.38-1.04-0.569c-3.119-1.671-6.35-3.15-9.659-4.48c0.54,0.13,1.08,0.27,1.609,0.41
				c3.08,0.84,6.101,1.939,9,3.31C36.05,45.726,38.57,47.236,40.891,49.006z"/>
			<path fill="#FBBA00" d="M55.42,71.796c-0.029-0.1-0.06-0.19-0.08-0.29c-0.689-2.38-1.42-4.67-2.319-6.56
				c-0.641-1.341-1.38-2.66-2.16-3.851c-0.69-1.1-1.4-2.08-2.04-2.87c-1.3-1.63-2.73-3.16-4.271-4.569l0.261-0.061l1.04-0.26
				c0.56,0.57,1.119,1.15,1.68,1.77c2.3,2.771,3.63,4.771,5.22,7.591c0.24,0.42,0.47,0.829,0.66,1.239
				C54.851,66.936,55.12,69.226,55.42,71.796z"/>
		</g>
		<g>
			<linearGradient id="SVGID_5_" gradientUnits="userSpaceOnUse" x1="38.1675" y1="42.896" x2="72.9304" y2="42.896">
				<stop  offset="0" style="stop-color:#375D91"/>
				<stop  offset="1" style="stop-color:#273863"/>
			</linearGradient>
			<path fill="url(#SVGID_5_)" d="M72.931,44.176c-4.171,0.82-8.33,1.66-12.5,2.49c-0.07,0.02-0.141,0.03-0.211,0.04
				c-6.38-4.04-12.97-6.101-15.05-6.69c-0.06-0.02-0.12-0.04-0.18-0.05c-0.06-0.02-0.1-0.04-0.15-0.05l15.391-0.83h0.05
				c0,0,0,0,0.01,0.02C60.69,39.196,66.53,40.706,72.931,44.176z"/>
			<linearGradient id="SVGID_6_" gradientUnits="userSpaceOnUse" x1="63.4502" y1="55.4463" x2="88.29" y2="55.4463">
				<stop  offset="0" style="stop-color:#375D91"/>
				<stop  offset="1" style="stop-color:#273863"/>
			</linearGradient>
			<path fill="url(#SVGID_6_)" d="M88.29,59.326l-14.32,5.66l-0.05,0.02c-0.029-0.2-0.069-0.4-0.109-0.6c0-0.011,0-0.011,0-0.011
				c-1.261-6.609-5.49-11.67-10.36-15.42c0.08-0.02,0.15-0.04,0.22-0.06c4.061-1,8.12-2.01,12.17-3.03
				C80.87,49.036,85.79,53.436,88.29,59.326z"/>
			<path fill="#FFCD1C" d="M54.061,43.216c2.189,1,4.33,2.15,6.37,3.45c-0.07,0.02-0.141,0.03-0.211,0.04
				c-0.579,0.12-1.17,0.24-1.75,0.35c-1.6-1-3.239-1.95-4.909-2.85c-2.96-1.57-5.99-3.061-9.11-4.38c0.18,0.04,0.36,0.09,0.54,0.14
				c0.06,0.01,0.12,0.03,0.18,0.05C48.22,40.796,51.19,41.886,54.061,43.216z"/>
			<path fill="#FFCD1C" d="M73.811,64.406c0-0.011,0-0.011,0-0.011c-0.851-3.06-2.46-5.79-4.42-8.18c-2.11-2.56-4.62-4.76-7.32-6.72
				c-0.061-0.05-0.13-0.09-0.19-0.141c0.53-0.119,1.051-0.25,1.57-0.38c0.08-0.02,0.15-0.04,0.22-0.06
				c2.471,1.899,4.771,4.07,6.601,6.62c2.04,2.76,3.439,6.069,3.699,9.45C73.92,64.786,73.87,64.596,73.811,64.406z"/>
		</g>
	</g>
</g>
</svg>
